<svg width="149" height="150" viewBox="0 0 149 150" fill="none" xmlns="http://www.w3.org/2000/svg">
<g filter="url(#filter0_d_502_14)">
<mask id="mask0_502_14" style="mask-type:luminance" maskUnits="userSpaceOnUse" x="4" y="0" width="141" height="142">
<path d="M145 70.5C145 31.5639 113.436 0 74.5 0C35.5639 0 4 31.5639 4 70.5V71.5C4 110.436 35.5639 142 74.5 142C113.436 142 145 110.436 145 71.5V70.5Z" fill="white"/>
</mask>
<g mask="url(#mask0_502_14)">
<path d="M145 70.5C145 31.5639 113.436 0 74.5 0C35.5639 0 4 31.5639 4 70.5V71.5C4 110.436 35.5639 142 74.5 142C113.436 142 145 110.436 145 71.5V70.5Z" fill="#92692D"/>
<mask id="mask1_502_14" style="mask-type:luminance" maskUnits="userSpaceOnUse" x="52" y="50" width="45" height="42">
<path d="M97 50H52V92H97V50Z" fill="white"/>
</mask>
<g mask="url(#mask1_502_14)">
<path fill-rule="evenodd" clip-rule="evenodd" d="M53.4062 65.75C53.1958 65.7501 52.9881 65.7942 52.7984 65.8792C52.6087 65.9642 52.4418 66.0878 52.3101 66.2409C52.1784 66.3941 52.0852 66.5729 52.0374 66.7642C51.9895 66.9554 51.9883 67.1542 52.0337 67.346L56.68 86.8602C57.0268 88.3178 57.8958 89.6214 59.1434 90.5558C60.3911 91.4902 61.9428 91.9997 63.5425 92H79.8325C81.4322 91.9997 82.9839 91.4902 84.2316 90.5558C85.4792 89.6214 86.3482 88.3178 86.695 86.8602L87.0634 85.3115C89.2148 85.6871 91.4383 85.2677 93.2646 84.1419C95.0909 83.0162 96.377 81.2721 96.8515 79.2779C97.326 77.2838 96.9517 75.1956 95.8076 73.4542C94.6635 71.7127 92.8391 70.4544 90.7197 69.9448L91.3412 67.346C91.3867 67.1542 91.3855 66.9554 91.3376 66.7642C91.2898 66.5729 91.1966 66.3941 91.0649 66.2409C90.9332 66.0878 90.7663 65.9642 90.5766 65.8792C90.3869 65.7942 90.1792 65.7501 89.9687 65.75H53.4062ZM88.5625 82.8125C88.2649 82.8125 87.9677 82.7906 87.6737 82.7469L90.1122 72.5146C91.413 72.8663 92.5343 73.6439 93.2704 74.7048C94.0065 75.7657 94.308 77.0388 94.1196 78.2905C93.9313 79.5421 93.2657 80.6884 92.2449 81.5191C91.2242 82.3497 89.9167 82.8089 88.5625 82.8125Z" fill="black"/>
<path d="M64.375 52.1002L64.3666 52.1107L64.3272 52.1606C64.1231 52.4237 63.9316 52.6952 63.7534 52.9743C63.6051 53.1997 63.4727 53.4338 63.3569 53.6752C63.2838 53.8327 63.2612 53.9167 63.2528 53.9456V53.9561C63.2846 54.1883 63.3721 54.4108 63.5088 54.6071C63.7197 54.9562 64.0094 55.3211 64.375 55.7752L64.4031 55.8067C64.735 56.2214 65.1344 56.7176 65.4438 57.2321C65.7588 57.7571 66.0625 58.4264 66.0625 59.1877C66.0625 59.6812 65.8797 60.1537 65.7278 60.4844C65.5627 60.8352 65.3729 61.1755 65.1597 61.5029C64.9377 61.8463 64.7003 62.1809 64.4481 62.5057L64.3975 62.5713L64.3834 62.5923L64.3778 62.5976C64.1544 62.8764 63.8215 63.061 63.4523 63.1107C63.0831 63.1604 62.7078 63.0712 62.4091 62.8627C62.1103 62.6542 61.9126 62.3434 61.8593 61.9988C61.806 61.6542 61.9016 61.304 62.125 61.0252L62.1334 61.0147L62.1728 60.9648C62.377 60.7017 62.5684 60.4302 62.7466 60.1511C62.8969 59.9268 63.0295 59.6925 63.1431 59.4502C63.2162 59.2927 63.2388 59.2087 63.2472 59.1798C63.2179 58.9442 63.1313 58.7179 62.9941 58.5183C62.7308 58.1124 62.4405 57.7223 62.125 57.3502L62.0969 57.3187C61.7175 56.8649 61.3699 56.3888 61.0563 55.8933C60.6732 55.302 60.4601 54.6284 60.4375 53.9377C60.4375 53.4442 60.6203 52.9717 60.7722 52.6409C60.9381 52.2787 61.1491 51.9217 61.3403 51.6224C61.5623 51.279 61.7997 50.9445 62.0519 50.6197L62.1222 50.5278C62.3456 50.249 62.6785 50.0644 63.0477 50.0147C63.4169 49.965 63.7922 50.0542 64.0909 50.2627C64.3897 50.4712 64.5874 50.7819 64.6407 51.1265C64.694 51.4711 64.5984 51.8214 64.375 52.1002ZM72.8125 52.1002L72.8041 52.1107L72.7647 52.1606C72.5606 52.4237 72.3691 52.6952 72.1909 52.9743C72.0426 53.1997 71.9102 53.4338 71.7944 53.6752C71.7213 53.8327 71.6987 53.9167 71.6903 53.9456V53.9561C71.7221 54.1883 71.8096 54.4108 71.9463 54.6071C72.1572 54.9562 72.4469 55.3211 72.8125 55.7752L72.8406 55.8067C73.1725 56.2214 73.5719 56.7176 73.8813 57.2321C74.1963 57.7571 74.5 58.4264 74.5 59.1877C74.5 59.6812 74.3172 60.1537 74.1653 60.4844C74.0002 60.8352 73.8104 61.1755 73.5972 61.5029C73.3752 61.8463 73.1378 62.1809 72.8856 62.5057L72.835 62.5713L72.8209 62.5923L72.8153 62.5976C72.5919 62.8764 72.259 63.061 71.8898 63.1107C71.5206 63.1604 71.1453 63.0712 70.8466 62.8627C70.5478 62.6542 70.3501 62.3434 70.2968 61.9988C70.2435 61.6542 70.3391 61.304 70.5625 61.0252L70.5709 61.0147L70.6103 60.9648C70.8145 60.7017 71.0059 60.4302 71.1841 60.1511C71.3344 59.9268 71.467 59.6925 71.5806 59.4502C71.6537 59.2927 71.6763 59.2087 71.6847 59.1798C71.6554 58.9442 71.5688 58.7179 71.4316 58.5183C71.1683 58.1124 70.878 57.7223 70.5625 57.3502L70.5344 57.3187C70.155 56.8649 69.8074 56.3888 69.4937 55.8933C69.1107 55.302 68.8976 54.6284 68.875 53.9377C68.875 53.4442 69.0578 52.9717 69.2097 52.6409C69.3756 52.2787 69.5866 51.9217 69.7778 51.6224C69.9998 51.279 70.2372 50.9445 70.4894 50.6197L70.5597 50.5278C70.7831 50.249 71.116 50.0644 71.4852 50.0147C71.8544 49.965 72.2297 50.0542 72.5284 50.2627C72.8272 50.4712 73.0249 50.7819 73.0782 51.1265C73.1315 51.4711 73.0359 51.8214 72.8125 52.1002ZM81.25 52.1002L81.2416 52.1107L81.2022 52.1606C80.9978 52.4235 80.8064 52.6951 80.6284 52.9743C80.4802 53.1997 80.3477 53.4338 80.2319 53.6752C80.1588 53.8327 80.1363 53.9167 80.1278 53.9456V53.9561C80.1596 54.1883 80.2471 54.4108 80.3838 54.6071C80.5947 54.9562 80.8844 55.3211 81.25 55.7752L81.2781 55.8067C81.61 56.2214 82.0094 56.7176 82.3187 57.2321C82.6337 57.7571 82.9375 58.4264 82.9375 59.1877C82.9375 59.6812 82.7547 60.1537 82.6028 60.4844C82.4386 60.8356 82.2487 61.1759 82.0347 61.5029C81.8138 61.8464 81.5773 62.181 81.3259 62.5057L81.2725 62.5713L81.2584 62.5923L81.2528 62.5976C81.0294 62.8764 80.6965 63.061 80.3273 63.1107C79.9581 63.1604 79.5828 63.0712 79.2841 62.8627C78.9853 62.6542 78.7876 62.3434 78.7343 61.9988C78.681 61.6542 78.7766 61.304 79 61.0252L79.0084 61.0147L79.0478 60.9648C79.252 60.7017 79.4434 60.4302 79.6216 60.1511C79.7719 59.9268 79.9045 59.6925 80.0181 59.4502C80.0912 59.2927 80.1137 59.2087 80.1222 59.1798C80.0929 58.9442 80.0063 58.7179 79.8691 58.5183C79.6058 58.1124 79.3155 57.7223 79 57.3502L78.9719 57.3187C78.5925 56.8649 78.2449 56.3888 77.9313 55.8933C77.5482 55.302 77.3351 54.6284 77.3125 53.9377C77.3125 53.4442 77.4953 52.9717 77.6472 52.6409C77.8131 52.2787 78.0241 51.9217 78.2153 51.6224C78.4373 51.279 78.6747 50.9445 78.9269 50.6197L78.9972 50.5278C79.2206 50.249 79.5535 50.0644 79.9227 50.0147C80.2919 49.965 80.6672 50.0542 80.9659 50.2627C81.2647 50.4712 81.4624 50.7819 81.5157 51.1265C81.569 51.4711 81.4734 51.8214 81.25 52.1002Z" fill="black"/>
</g>
<path d="M29.7669 33.5001H28.4459C28.3678 33.1201 28.231 32.7863 28.0357 32.4987C27.844 32.211 27.6096 31.9696 27.3326 31.7742C27.0592 31.5754 26.7555 31.4262 26.4217 31.3268C26.0879 31.2274 25.7399 31.1777 25.3777 31.1777C24.7172 31.1777 24.1188 31.3446 23.5826 31.6784C23.0499 32.0122 22.6256 32.504 22.3095 33.1539C21.997 33.8037 21.8408 34.601 21.8408 35.5456C21.8408 36.4902 21.997 37.2874 22.3095 37.9372C22.6256 38.5871 23.0499 39.0789 23.5826 39.4127C24.1188 39.7465 24.7172 39.9135 25.3777 39.9135C25.7399 39.9135 26.0879 39.8637 26.4217 39.7643C26.7555 39.6649 27.0592 39.5175 27.3326 39.3222C27.6096 39.1233 27.844 38.8801 28.0357 38.5924C28.231 38.3012 28.3678 37.9674 28.4459 37.591H29.7669C29.6675 38.1485 29.4864 38.6475 29.2236 39.0878C28.9608 39.5282 28.6341 39.9028 28.2435 40.2117C27.8529 40.5171 27.4143 40.7497 26.9278 40.9095C26.4448 41.0693 25.9281 41.1492 25.3777 41.1492C24.4473 41.1492 23.6199 40.922 22.8955 40.4674C22.171 40.0129 21.6011 39.3666 21.1856 38.5285C20.7701 37.6904 20.5624 36.6961 20.5624 35.5456C20.5624 34.395 20.7701 33.4007 21.1856 32.5626C21.6011 31.7245 22.171 31.0782 22.8955 30.6237C23.6199 30.1691 24.4473 29.9419 25.3777 29.9419C25.9281 29.9419 26.4448 30.0218 26.9278 30.1816C27.4143 30.3414 27.8529 30.5757 28.2435 30.8847C28.6341 31.1901 28.9608 31.563 29.2236 32.0033C29.4864 32.4401 29.6675 32.939 29.7669 33.5001ZM35.055 41.1706C34.3164 41.1706 33.6683 40.9948 33.1108 40.6432C32.5568 40.2916 32.1235 39.7998 31.811 39.1677C31.5021 38.5356 31.3476 37.797 31.3476 36.9518C31.3476 36.0995 31.5021 35.3556 31.811 34.7199C32.1235 34.0843 32.5568 33.5907 33.1108 33.2391C33.6683 32.8875 34.3164 32.7117 35.055 32.7117C35.7936 32.7117 36.4399 32.8875 36.9939 33.2391C37.5514 33.5907 37.9847 34.0843 38.2936 34.7199C38.6061 35.3556 38.7624 36.0995 38.7624 36.9518C38.7624 37.797 38.6061 38.5356 38.2936 39.1677C37.9847 39.7998 37.5514 40.2916 36.9939 40.6432C36.4399 40.9948 35.7936 41.1706 35.055 41.1706ZM35.055 40.0413C35.6161 40.0413 36.0777 39.8975 36.4399 39.6098C36.8022 39.3222 37.0703 38.944 37.2443 38.4752C37.4183 38.0065 37.5053 37.4987 37.5053 36.9518C37.5053 36.4049 37.4183 35.8953 37.2443 35.423C37.0703 34.9507 36.8022 34.569 36.4399 34.2778C36.0777 33.9866 35.6161 33.841 35.055 33.841C34.4939 33.841 34.0323 33.9866 33.6701 34.2778C33.3078 34.569 33.0397 34.9507 32.8657 35.423C32.6917 35.8953 32.6047 36.4049 32.6047 36.9518C32.6047 37.4987 32.6917 38.0065 32.8657 38.4752C33.0397 38.944 33.3078 39.3222 33.6701 39.6098C34.0323 39.8975 34.4939 40.0413 35.055 40.0413ZM44.3248 32.8183V33.8836H39.9143V32.8183H44.3248ZM41.2353 41.0001V31.689C41.2353 31.2203 41.3454 30.8296 41.5656 30.5171C41.7857 30.2046 42.0716 29.9703 42.4232 29.814C42.7747 29.6578 43.1458 29.5796 43.5364 29.5796C43.8454 29.5796 44.0975 29.6045 44.2928 29.6542C44.4881 29.7039 44.6337 29.7501 44.7296 29.7927L44.3674 30.8794C44.3035 30.8581 44.2147 30.8314 44.1011 30.7995C43.991 30.7675 43.8454 30.7515 43.6643 30.7515C43.2488 30.7515 42.9487 30.8563 42.7641 31.0658C42.583 31.2753 42.4924 31.5825 42.4924 31.9873V41.0001H41.2353ZM49.7301 32.8183V33.8836H45.3196V32.8183H49.7301ZM46.6406 41.0001V31.689C46.6406 31.2203 46.7507 30.8296 46.9708 30.5171C47.191 30.2046 47.4769 29.9703 47.8284 29.814C48.18 29.6578 48.5511 29.5796 48.9417 29.5796C49.2507 29.5796 49.5028 29.6045 49.6981 29.6542C49.8934 29.7039 50.039 29.7501 50.1349 29.7927L49.7727 30.8794C49.7088 30.8581 49.62 30.8314 49.5063 30.7995C49.3963 30.7675 49.2507 30.7515 49.0696 30.7515C48.6541 30.7515 48.354 30.8563 48.1693 31.0658C47.9882 31.2753 47.8977 31.5825 47.8977 31.9873V41.0001H46.6406ZM54.5854 41.1706C53.797 41.1706 53.117 40.9965 52.5452 40.6485C51.9771 40.297 51.5385 39.8069 51.2295 39.1784C50.9241 38.5463 50.7714 37.8112 50.7714 36.9731C50.7714 36.135 50.9241 35.3964 51.2295 34.7572C51.5385 34.1144 51.9682 33.6137 52.5186 33.2551C53.0726 32.8929 53.7189 32.7117 54.4575 32.7117C54.8837 32.7117 55.3045 32.7828 55.7199 32.9248C56.1354 33.0669 56.5136 33.2977 56.8545 33.6173C57.1954 33.9333 57.4671 34.3524 57.6695 34.8744C57.8719 35.3964 57.9731 36.0392 57.9731 36.8027V37.3353H51.6663V36.2487H56.6947C56.6947 35.787 56.6024 35.3751 56.4177 35.0129C56.2366 34.6507 55.9774 34.3648 55.64 34.1553C55.3062 33.9458 54.9121 33.841 54.4575 33.841C53.9568 33.841 53.5236 33.9653 53.1578 34.2139C52.7956 34.4589 52.5168 34.7785 52.3215 35.1727C52.1262 35.5669 52.0285 35.9894 52.0285 36.4404V37.1649C52.0285 37.7828 52.1351 38.3066 52.3481 38.7363C52.5648 39.1624 52.8648 39.4873 53.2484 39.711C53.6319 39.9312 54.0775 40.0413 54.5854 40.0413C54.9156 40.0413 55.2139 39.9951 55.4802 39.9028C55.7501 39.8069 55.9827 39.6649 56.178 39.4767C56.3734 39.2849 56.5243 39.047 56.6308 38.7629L57.8453 39.1038C57.7175 39.5157 57.5026 39.8779 57.2008 40.1904C56.8989 40.4994 56.5261 40.7409 56.0822 40.9149C55.6383 41.0853 55.1393 41.1706 54.5854 41.1706ZM73.053 33.5001H71.732C71.6539 33.1201 71.5172 32.7863 71.3219 32.4987C71.1301 32.211 70.8957 31.9696 70.6187 31.7742C70.3453 31.5754 70.0417 31.4262 69.7079 31.3268C69.3741 31.2274 69.0261 31.1777 68.6638 31.1777C68.0033 31.1777 67.405 31.3446 66.8687 31.6784C66.3361 32.0122 65.9117 32.504 65.5957 33.1539C65.2832 33.8037 65.1269 34.601 65.1269 35.5456C65.1269 36.4902 65.2832 37.2874 65.5957 37.9372C65.9117 38.5871 66.3361 39.0789 66.8687 39.4127C67.405 39.7465 68.0033 39.9135 68.6638 39.9135C69.0261 39.9135 69.3741 39.8637 69.7079 39.7643C70.0417 39.6649 70.3453 39.5175 70.6187 39.3222C70.8957 39.1233 71.1301 38.8801 71.3219 38.5924C71.5172 38.3012 71.6539 37.9674 71.732 37.591H73.053C72.9536 38.1485 72.7725 38.6475 72.5097 39.0878C72.2469 39.5282 71.9202 39.9028 71.5296 40.2117C71.139 40.5171 70.7004 40.7497 70.2139 40.9095C69.731 41.0693 69.2143 41.1492 68.6638 41.1492C67.7334 41.1492 66.906 40.922 66.1816 40.4674C65.4572 40.0129 64.8872 39.3666 64.4717 38.5285C64.0562 37.6904 63.8485 36.6961 63.8485 35.5456C63.8485 34.395 64.0562 33.4007 64.4717 32.5626C64.8872 31.7245 65.4572 31.0782 66.1816 30.6237C66.906 30.1691 67.7334 29.9419 68.6638 29.9419C69.2143 29.9419 69.731 30.0218 70.2139 30.1816C70.7004 30.3414 71.139 30.5757 71.5296 30.8847C71.9202 31.1901 72.2469 31.563 72.5097 32.0033C72.7725 32.4401 72.9536 32.939 73.053 33.5001ZM78.3411 41.1706C77.6025 41.1706 76.9544 40.9948 76.3969 40.6432C75.8429 40.2916 75.4097 39.7998 75.0972 39.1677C74.7882 38.5356 74.6337 37.797 74.6337 36.9518C74.6337 36.0995 74.7882 35.3556 75.0972 34.7199C75.4097 34.0843 75.8429 33.5907 76.3969 33.2391C76.9544 32.8875 77.6025 32.7117 78.3411 32.7117C79.0798 32.7117 79.7261 32.8875 80.2801 33.2391C80.8376 33.5907 81.2708 34.0843 81.5798 34.7199C81.8923 35.3556 82.0485 36.0995 82.0485 36.9518C82.0485 37.797 81.8923 38.5356 81.5798 39.1677C81.2708 39.7998 80.8376 40.2916 80.2801 40.6432C79.7261 40.9948 79.0798 41.1706 78.3411 41.1706ZM78.3411 40.0413C78.9022 40.0413 79.3639 39.8975 79.7261 39.6098C80.0883 39.3222 80.3564 38.944 80.5304 38.4752C80.7044 38.0065 80.7914 37.4987 80.7914 36.9518C80.7914 36.4049 80.7044 35.8953 80.5304 35.423C80.3564 34.9507 80.0883 34.569 79.7261 34.2778C79.3639 33.9866 78.9022 33.841 78.3411 33.841C77.7801 33.841 77.3184 33.9866 76.9562 34.2778C76.594 34.569 76.3259 34.9507 76.1519 35.423C75.9778 35.8953 75.8908 36.4049 75.8908 36.9518C75.8908 37.4987 75.9778 38.0065 76.1519 38.4752C76.3259 38.944 76.594 39.3222 76.9562 39.6098C77.3184 39.8975 77.7801 40.0413 78.3411 40.0413ZM83.9675 41.0001V32.8183H85.182V34.0967H85.2885C85.4589 33.6599 85.7342 33.3208 86.1141 33.0793C86.4941 32.8343 86.9504 32.7117 87.4831 32.7117C88.0229 32.7117 88.4721 32.8343 88.8307 33.0793C89.193 33.3208 89.4753 33.6599 89.6777 34.0967H89.7629C89.9724 33.6741 90.2867 33.3385 90.7057 33.0899C91.1248 32.8378 91.6273 32.7117 92.2132 32.7117C92.9447 32.7117 93.5431 32.9408 94.0083 33.3989C94.4735 33.8534 94.7061 34.5619 94.7061 35.5242V41.0001H93.449V35.5242C93.449 34.9206 93.2839 34.4891 92.9536 34.2299C92.6234 33.9706 92.2345 33.841 91.7871 33.841C91.2118 33.841 90.7661 34.015 90.4501 34.363C90.134 34.7075 89.976 35.1443 89.976 35.6734V41.0001H88.6976V35.3964C88.6976 34.9312 88.5467 34.5566 88.2448 34.2725C87.943 33.9848 87.5541 33.841 87.0783 33.841C86.7516 33.841 86.4462 33.928 86.1621 34.102C85.8815 34.276 85.6543 34.5175 85.4802 34.8264C85.3098 35.1318 85.2246 35.4852 85.2246 35.8865V41.0001H83.9675ZM97.0046 41.0001V32.8183H98.2191V34.0967H98.3256C98.496 33.6599 98.7713 33.3208 99.1512 33.0793C99.5312 32.8343 99.9875 32.7117 100.52 32.7117C101.06 32.7117 101.509 32.8343 101.868 33.0793C102.23 33.3208 102.512 33.6599 102.715 34.0967H102.8C103.01 33.6741 103.324 33.3385 103.743 33.0899C104.162 32.8378 104.664 32.7117 105.25 32.7117C105.982 32.7117 106.58 32.9408 107.045 33.3989C107.511 33.8534 107.743 34.5619 107.743 35.5242V41.0001H106.486V35.5242C106.486 34.9206 106.321 34.4891 105.991 34.2299C105.66 33.9706 105.272 33.841 104.824 33.841C104.249 33.841 103.803 34.015 103.487 34.363C103.171 34.7075 103.013 35.1443 103.013 35.6734V41.0001H101.735V35.3964C101.735 34.9312 101.584 34.5566 101.282 34.2725C100.98 33.9848 100.591 33.841 100.115 33.841C99.7887 33.841 99.4833 33.928 99.1992 34.102C98.9186 34.276 98.6914 34.5175 98.5174 34.8264C98.3469 35.1318 98.2617 35.4852 98.2617 35.8865V41.0001H97.0046ZM113.472 41.1706C112.684 41.1706 112.004 40.9965 111.432 40.6485C110.864 40.297 110.425 39.8069 110.116 39.1784C109.811 38.5463 109.658 37.8112 109.658 36.9731C109.658 36.135 109.811 35.3964 110.116 34.7572C110.425 34.1144 110.855 33.6137 111.405 33.2551C111.959 32.8929 112.606 32.7117 113.344 32.7117C113.77 32.7117 114.191 32.7828 114.607 32.9248C115.022 33.0669 115.4 33.2977 115.741 33.6173C116.082 33.9333 116.354 34.3524 116.556 34.8744C116.759 35.3964 116.86 36.0392 116.86 36.8027V37.3353H110.553V36.2487H115.581C115.581 35.787 115.489 35.3751 115.304 35.0129C115.123 34.6507 114.864 34.3648 114.527 34.1553C114.193 33.9458 113.799 33.841 113.344 33.841C112.844 33.841 112.41 33.9653 112.045 34.2139C111.682 34.4589 111.404 34.7785 111.208 35.1727C111.013 35.5669 110.915 35.9894 110.915 36.4404V37.1649C110.915 37.7828 111.022 38.3066 111.235 38.7363C111.451 39.1624 111.752 39.4873 112.135 39.711C112.519 39.9312 112.964 40.0413 113.472 40.0413C113.802 40.0413 114.101 39.9951 114.367 39.9028C114.637 39.8069 114.869 39.6649 115.065 39.4767C115.26 39.2849 115.411 39.047 115.518 38.7629L116.732 39.1038C116.604 39.5157 116.389 39.8779 116.087 40.1904C115.786 40.4994 115.413 40.7409 114.969 40.9149C114.525 41.0853 114.026 41.1706 113.472 41.1706ZM118.772 41.0001V32.8183H119.987V34.0541H120.072C120.221 33.6492 120.491 33.3208 120.882 33.0686C121.272 32.8165 121.712 32.6904 122.203 32.6904C122.295 32.6904 122.41 32.6922 122.549 32.6958C122.687 32.6993 122.792 32.7046 122.863 32.7117V33.9902C122.82 33.9795 122.723 33.9635 122.57 33.9422C122.421 33.9174 122.263 33.9049 122.096 33.9049C121.698 33.9049 121.343 33.9884 121.031 34.1553C120.722 34.3186 120.477 34.5459 120.296 34.8371C120.118 35.1247 120.029 35.4532 120.029 35.8225V41.0001H118.772ZM127.428 41.1706C126.661 41.1706 126 40.9894 125.447 40.6272C124.893 40.265 124.466 39.7661 124.168 39.1304C123.87 38.4948 123.721 37.7686 123.721 36.9518C123.721 36.1208 123.873 35.3875 124.179 34.7519C124.488 34.1127 124.917 33.6137 125.468 33.2551C126.022 32.8929 126.668 32.7117 127.407 32.7117C127.982 32.7117 128.5 32.8183 128.962 33.0313C129.424 33.2444 129.802 33.5427 130.097 33.9262C130.391 34.3098 130.574 34.7572 130.645 35.2686H129.388C129.292 34.8957 129.079 34.5654 128.749 34.2778C128.422 33.9866 127.982 33.841 127.428 33.841C126.938 33.841 126.508 33.9688 126.139 34.2245C125.773 34.4767 125.487 34.8336 125.281 35.2952C125.079 35.7533 124.978 36.2913 124.978 36.9092C124.978 37.5413 125.077 38.0917 125.276 38.5605C125.478 39.0292 125.763 39.3932 126.128 39.6524C126.498 39.9117 126.931 40.0413 127.428 40.0413C127.755 40.0413 128.051 39.9845 128.318 39.8708C128.584 39.7572 128.809 39.5939 128.994 39.3808C129.179 39.1677 129.31 38.912 129.388 38.6137H130.645C130.574 39.0967 130.399 39.5317 130.118 39.9188C129.841 40.3023 129.473 40.6077 129.015 40.835C128.561 41.0587 128.032 41.1706 127.428 41.1706Z" fill="white"/>
<path d="M32.4473 106H29.7541V97.2727H32.5666C33.4132 97.2727 34.1376 97.4474 34.7399 97.7969C35.3422 98.1435 35.8038 98.642 36.1248 99.2926C36.4458 99.9403 36.6064 100.716 36.6064 101.619C36.6064 102.528 36.4444 103.311 36.1206 103.967C35.7967 104.621 35.3251 105.124 34.7058 105.476C34.0865 105.825 33.3336 106 32.4473 106ZM30.8109 105.062H32.3791C33.1007 105.062 33.6987 104.923 34.1731 104.645C34.6475 104.366 35.0012 103.97 35.2342 103.456C35.4672 102.942 35.5836 102.33 35.5836 101.619C35.5836 100.915 35.4686 100.308 35.2385 99.7997C35.0083 99.2884 34.6646 98.8963 34.2072 98.6236C33.7498 98.348 33.1802 98.2102 32.4984 98.2102H30.8109V105.062ZM40.9018 106.136C40.3109 106.136 39.7924 105.996 39.3464 105.714C38.9032 105.433 38.5566 105.04 38.3066 104.534C38.0595 104.028 37.9359 103.437 37.9359 102.761C37.9359 102.08 38.0595 101.484 38.3066 100.976C38.5566 100.467 38.9032 100.072 39.3464 99.7912C39.7924 99.5099 40.3109 99.3693 40.9018 99.3693C41.4927 99.3693 42.0098 99.5099 42.4529 99.7912C42.899 100.072 43.2456 100.467 43.4927 100.976C43.7427 101.484 43.8677 102.08 43.8677 102.761C43.8677 103.437 43.7427 104.028 43.4927 104.534C43.2456 105.04 42.899 105.433 42.4529 105.714C42.0098 105.996 41.4927 106.136 40.9018 106.136ZM40.9018 105.233C41.3507 105.233 41.72 105.118 42.0098 104.888C42.2995 104.658 42.514 104.355 42.6532 103.98C42.7924 103.605 42.862 103.199 42.862 102.761C42.862 102.324 42.7924 101.916 42.6532 101.538C42.514 101.161 42.2995 100.855 42.0098 100.622C41.72 100.389 41.3507 100.273 40.9018 100.273C40.4529 100.273 40.0836 100.389 39.7939 100.622C39.5041 100.855 39.2896 101.161 39.1504 101.538C39.0112 101.916 38.9416 102.324 38.9416 102.761C38.9416 103.199 39.0112 103.605 39.1504 103.98C39.2896 104.355 39.5041 104.658 39.7939 104.888C40.0836 105.118 40.4529 105.233 40.9018 105.233ZM53.4142 100.92L52.5108 101.176C52.454 101.026 52.3702 100.879 52.2594 100.737C52.1515 100.592 52.0037 100.473 51.8162 100.379C51.6287 100.286 51.3887 100.239 51.0961 100.239C50.6955 100.239 50.3617 100.331 50.0946 100.516C49.8304 100.697 49.6983 100.929 49.6983 101.21C49.6983 101.46 49.7892 101.658 49.9711 101.803C50.1529 101.947 50.437 102.068 50.8233 102.165L51.7949 102.403C52.3801 102.545 52.8162 102.763 53.1032 103.055C53.3901 103.345 53.5336 103.719 53.5336 104.176C53.5336 104.551 53.4256 104.886 53.2097 105.182C52.9966 105.477 52.6983 105.71 52.3148 105.881C51.9313 106.051 51.4853 106.136 50.9767 106.136C50.3091 106.136 49.7566 105.991 49.3191 105.702C48.8816 105.412 48.6046 104.989 48.4881 104.432L49.4426 104.193C49.5336 104.545 49.7054 104.81 49.9583 104.986C50.214 105.162 50.5478 105.25 50.9597 105.25C51.4284 105.25 51.8006 105.151 52.0762 104.952C52.3546 104.75 52.4938 104.509 52.4938 104.227C52.4938 104 52.4142 103.81 52.2551 103.656C52.0961 103.5 51.8517 103.384 51.5222 103.307L50.4313 103.051C49.8319 102.909 49.3915 102.689 49.1103 102.391C48.8319 102.089 48.6926 101.713 48.6926 101.261C48.6926 100.892 48.7963 100.565 49.0037 100.281C49.214 99.9972 49.4995 99.7741 49.8603 99.6122C50.2239 99.4503 50.6358 99.3693 51.0961 99.3693C51.7438 99.3693 52.2523 99.5114 52.6216 99.7955C52.9938 100.08 53.258 100.455 53.4142 100.92ZM55.0474 106V99.4545H56.0531V106H55.0474ZM55.5588 98.3636C55.3627 98.3636 55.1937 98.2969 55.0517 98.1634C54.9125 98.0298 54.8429 97.8693 54.8429 97.6818C54.8429 97.4943 54.9125 97.3338 55.0517 97.2003C55.1937 97.0668 55.3627 97 55.5588 97C55.7548 97 55.9224 97.0668 56.0616 97.2003C56.2037 97.3338 56.2747 97.4943 56.2747 97.6818C56.2747 97.8693 56.2037 98.0298 56.0616 98.1634C55.9224 98.2969 55.7548 98.3636 55.5588 98.3636ZM60.7417 99.4545V100.307H57.3496V99.4545H60.7417ZM58.3382 97.8864H59.3439V104.125C59.3439 104.409 59.3851 104.622 59.4675 104.764C59.5527 104.903 59.6607 104.997 59.7914 105.045C59.9249 105.091 60.0655 105.114 60.2132 105.114C60.324 105.114 60.415 105.108 60.486 105.097C60.557 105.082 60.6138 105.071 60.6564 105.062L60.861 105.966C60.7928 105.991 60.6976 106.017 60.5755 106.043C60.4533 106.071 60.2985 106.085 60.111 106.085C59.8269 106.085 59.5485 106.024 59.2757 105.902C59.0059 105.78 58.7814 105.594 58.6025 105.344C58.4263 105.094 58.3382 104.778 58.3382 104.398V97.8864ZM64.9284 106.136C64.2978 106.136 63.7537 105.997 63.2963 105.719C62.8418 105.438 62.4909 105.045 62.2438 104.543C61.9995 104.037 61.8773 103.449 61.8773 102.778C61.8773 102.108 61.9995 101.517 62.2438 101.006C62.4909 100.491 62.8347 100.091 63.275 99.804C63.7182 99.5142 64.2353 99.3693 64.8262 99.3693C65.1671 99.3693 65.5037 99.4261 65.8361 99.5398C66.1685 99.6534 66.4711 99.8381 66.7438 100.094C67.0165 100.347 67.2338 100.682 67.3958 101.099C67.5577 101.517 67.6387 102.031 67.6387 102.642V103.068H62.5932V102.199H66.6159C66.6159 101.83 66.5421 101.5 66.3944 101.21C66.2495 100.92 66.0421 100.692 65.7722 100.524C65.5051 100.357 65.1898 100.273 64.8262 100.273C64.4256 100.273 64.079 100.372 63.7864 100.571C63.4966 100.767 63.2736 101.023 63.1174 101.338C62.9611 101.653 62.883 101.991 62.883 102.352V102.932C62.883 103.426 62.9682 103.845 63.1387 104.189C63.312 104.53 63.552 104.79 63.8588 104.969C64.1657 105.145 64.5222 105.233 64.9284 105.233C65.1926 105.233 65.4313 105.196 65.6444 105.122C65.8603 105.045 66.0463 104.932 66.2026 104.781C66.3588 104.628 66.4796 104.437 66.5648 104.21L67.5364 104.483C67.4341 104.812 67.2623 105.102 67.0208 105.352C66.7793 105.599 66.481 105.793 66.1259 105.932C65.7708 106.068 65.3716 106.136 64.9284 106.136ZM72.5435 108.455V99.4545H73.5151V100.494H73.6344C73.7083 100.381 73.8105 100.236 73.9412 100.06C74.0748 99.8807 74.2651 99.7216 74.5123 99.5824C74.7623 99.4403 75.1003 99.3693 75.5265 99.3693C76.0776 99.3693 76.5634 99.5071 76.9838 99.7827C77.4043 100.058 77.7324 100.449 77.9682 100.955C78.204 101.46 78.3219 102.057 78.3219 102.744C78.3219 103.438 78.204 104.038 77.9682 104.547C77.7324 105.053 77.4057 105.445 76.9881 105.723C76.5705 105.999 76.089 106.136 75.5435 106.136C75.123 106.136 74.7864 106.067 74.5336 105.928C74.2807 105.786 74.0861 105.625 73.9498 105.446C73.8134 105.264 73.7083 105.114 73.6344 104.994H73.5492V108.455H72.5435ZM73.5321 102.727C73.5321 103.222 73.6046 103.658 73.7495 104.036C73.8944 104.411 74.106 104.705 74.3844 104.918C74.6628 105.128 75.0037 105.233 75.4071 105.233C75.8276 105.233 76.1784 105.122 76.4597 104.901C76.7438 104.676 76.9569 104.375 77.0989 103.997C77.2438 103.616 77.3162 103.193 77.3162 102.727C77.3162 102.267 77.2452 101.852 77.1032 101.483C76.964 101.111 76.7523 100.817 76.4682 100.601C76.187 100.382 75.8333 100.273 75.4071 100.273C74.998 100.273 74.6543 100.376 74.3759 100.584C74.0975 100.788 73.8873 101.075 73.7452 101.445C73.6032 101.811 73.5321 102.239 73.5321 102.727ZM81.7821 106.153C81.3674 106.153 80.9909 106.075 80.6529 105.919C80.3148 105.76 80.0463 105.531 79.8475 105.233C79.6486 104.932 79.5492 104.568 79.5492 104.142C79.5492 103.767 79.623 103.463 79.7708 103.23C79.9185 102.994 80.1159 102.81 80.3631 102.676C80.6103 102.543 80.883 102.443 81.1813 102.378C81.4824 102.31 81.785 102.256 82.089 102.216C82.4867 102.165 82.8091 102.126 83.0563 102.101C83.3063 102.072 83.4881 102.026 83.6017 101.96C83.7182 101.895 83.7765 101.781 83.7765 101.619V101.585C83.7765 101.165 83.6614 100.838 83.4313 100.605C83.204 100.372 82.8588 100.256 82.3958 100.256C81.9157 100.256 81.5392 100.361 81.2665 100.571C80.9938 100.781 80.802 101.006 80.6912 101.244L79.7367 100.903C79.9071 100.506 80.1344 100.196 80.4185 99.9744C80.7054 99.75 81.0179 99.5937 81.356 99.5057C81.6969 99.4148 82.0321 99.3693 82.3617 99.3693C82.5719 99.3693 82.8134 99.3949 83.0861 99.446C83.3617 99.4943 83.6273 99.5952 83.883 99.7486C84.1415 99.902 84.356 100.134 84.5265 100.443C84.6969 100.753 84.7821 101.168 84.7821 101.688V106H83.7765V105.114H83.7253C83.6571 105.256 83.5435 105.408 83.3844 105.57C83.2253 105.732 83.0137 105.869 82.7495 105.983C82.4853 106.097 82.1628 106.153 81.7821 106.153ZM81.9355 105.25C82.3333 105.25 82.6685 105.172 82.9412 105.016C83.2168 104.859 83.4242 104.658 83.5634 104.411C83.7054 104.163 83.7765 103.903 83.7765 103.631V102.71C83.7338 102.761 83.6401 102.808 83.4952 102.851C83.3532 102.891 83.1884 102.926 83.0009 102.957C82.8162 102.986 82.6358 103.011 82.4597 103.034C82.2864 103.054 82.1458 103.071 82.0378 103.085C81.7765 103.119 81.5321 103.175 81.3049 103.251C81.0804 103.325 80.8986 103.437 80.7594 103.588C80.623 103.736 80.5549 103.937 80.5549 104.193C80.5549 104.543 80.6841 104.807 80.9426 104.986C81.204 105.162 81.535 105.25 81.9355 105.25ZM86.6177 106V99.4545H87.5893V100.443H87.6575C87.7768 100.119 87.9927 99.8565 88.3052 99.6548C88.6177 99.4531 88.97 99.3523 89.362 99.3523C89.4359 99.3523 89.5282 99.3537 89.639 99.3565C89.7498 99.3594 89.8336 99.3636 89.8904 99.3693V100.392C89.8564 100.384 89.7782 100.371 89.6561 100.354C89.5368 100.334 89.4103 100.324 89.2768 100.324C88.9586 100.324 88.6745 100.391 88.4245 100.524C88.1774 100.655 87.9814 100.837 87.8365 101.07C87.6944 101.3 87.6234 101.562 87.6234 101.858V106H86.6177ZM93.0087 106.153C92.5939 106.153 92.2175 106.075 91.8794 105.919C91.5414 105.76 91.2729 105.531 91.074 105.233C90.8752 104.932 90.7757 104.568 90.7757 104.142C90.7757 103.767 90.8496 103.463 90.9973 103.23C91.1451 102.994 91.3425 102.81 91.5897 102.676C91.8368 102.543 92.1096 102.443 92.4078 102.378C92.709 102.31 93.0115 102.256 93.3155 102.216C93.7132 102.165 94.0357 102.126 94.2828 102.101C94.5328 102.072 94.7147 102.026 94.8283 101.96C94.9448 101.895 95.003 101.781 95.003 101.619V101.585C95.003 101.165 94.888 100.838 94.6578 100.605C94.4306 100.372 94.0854 100.256 93.6223 100.256C93.1422 100.256 92.7658 100.361 92.4931 100.571C92.2203 100.781 92.0286 101.006 91.9178 101.244L90.9632 100.903C91.1337 100.506 91.361 100.196 91.6451 99.9744C91.932 99.75 92.2445 99.5937 92.5826 99.5057C92.9235 99.4148 93.2587 99.3693 93.5882 99.3693C93.7985 99.3693 94.04 99.3949 94.3127 99.446C94.5882 99.4943 94.8539 99.5952 95.1096 99.7486C95.3681 99.902 95.5826 100.134 95.753 100.443C95.9235 100.753 96.0087 101.168 96.0087 101.688V106H95.003V105.114H94.9519C94.8837 105.256 94.7701 105.408 94.611 105.57C94.4519 105.732 94.2402 105.869 93.976 105.983C93.7118 106.097 93.3894 106.153 93.0087 106.153ZM93.1621 105.25C93.5598 105.25 93.8951 105.172 94.1678 105.016C94.4434 104.859 94.6507 104.658 94.79 104.411C94.932 104.163 95.003 103.903 95.003 103.631V102.71C94.9604 102.761 94.8667 102.808 94.7218 102.851C94.5797 102.891 94.415 102.926 94.2275 102.957C94.0428 102.986 93.8624 103.011 93.6863 103.034C93.513 103.054 93.3723 103.071 93.2644 103.085C93.003 103.119 92.7587 103.175 92.5314 103.251C92.307 103.325 92.1252 103.437 91.986 103.588C91.8496 103.736 91.7814 103.937 91.7814 104.193C91.7814 104.543 91.9107 104.807 92.1692 104.986C92.4306 105.162 92.7615 105.25 93.1621 105.25ZM105.856 100.92L104.952 101.176C104.895 101.026 104.812 100.879 104.701 100.737C104.593 100.592 104.445 100.473 104.258 100.379C104.07 100.286 103.83 100.239 103.537 100.239C103.137 100.239 102.803 100.331 102.536 100.516C102.272 100.697 102.14 100.929 102.14 101.21C102.14 101.46 102.231 101.658 102.412 101.803C102.594 101.947 102.878 102.068 103.265 102.165L104.236 102.403C104.822 102.545 105.258 102.763 105.545 103.055C105.831 103.345 105.975 103.719 105.975 104.176C105.975 104.551 105.867 104.886 105.651 105.182C105.438 105.477 105.14 105.71 104.756 105.881C104.373 106.051 103.927 106.136 103.418 106.136C102.751 106.136 102.198 105.991 101.76 105.702C101.323 105.412 101.046 104.989 100.93 104.432L101.884 104.193C101.975 104.545 102.147 104.81 102.4 104.986C102.655 105.162 102.989 105.25 103.401 105.25C103.87 105.25 104.242 105.151 104.518 104.952C104.796 104.75 104.935 104.509 104.935 104.227C104.935 104 104.856 103.81 104.697 103.656C104.537 103.5 104.293 103.384 103.964 103.307L102.873 103.051C102.273 102.909 101.833 102.689 101.552 102.391C101.273 102.089 101.134 101.713 101.134 101.261C101.134 100.892 101.238 100.565 101.445 100.281C101.655 99.9972 101.941 99.7741 102.302 99.6122C102.665 99.4503 103.077 99.3693 103.537 99.3693C104.185 99.3693 104.694 99.5114 105.063 99.7955C105.435 100.08 105.699 100.455 105.856 100.92ZM111.614 103.324V99.4545H112.619V106H111.614V104.892H111.546C111.392 105.224 111.154 105.507 110.83 105.74C110.506 105.97 110.097 106.085 109.602 106.085C109.193 106.085 108.83 105.996 108.512 105.817C108.193 105.635 107.943 105.362 107.762 104.999C107.58 104.632 107.489 104.17 107.489 103.614V99.4545H108.494V103.545C108.494 104.023 108.628 104.403 108.895 104.688C109.165 104.972 109.509 105.114 109.926 105.114C110.176 105.114 110.431 105.05 110.689 104.922C110.95 104.794 111.169 104.598 111.345 104.334C111.524 104.07 111.614 103.733 111.614 103.324ZM116.388 106.153C115.973 106.153 115.596 106.075 115.258 105.919C114.92 105.76 114.652 105.531 114.453 105.233C114.254 104.932 114.155 104.568 114.155 104.142C114.155 103.767 114.229 103.463 114.376 103.23C114.524 102.994 114.721 102.81 114.969 102.676C115.216 102.543 115.488 102.443 115.787 102.378C116.088 102.31 116.39 102.256 116.694 102.216C117.092 102.165 117.415 102.126 117.662 102.101C117.912 102.072 118.094 102.026 118.207 101.96C118.324 101.895 118.382 101.781 118.382 101.619V101.585C118.382 101.165 118.267 100.838 118.037 100.605C117.809 100.372 117.464 100.256 117.001 100.256C116.521 100.256 116.145 100.361 115.872 100.571C115.599 100.781 115.407 101.006 115.297 101.244L114.342 100.903C114.513 100.506 114.74 100.196 115.024 99.9744C115.311 99.75 115.623 99.5937 115.961 99.5057C116.302 99.4148 116.638 99.3693 116.967 99.3693C117.177 99.3693 117.419 99.3949 117.692 99.446C117.967 99.4943 118.233 99.5952 118.488 99.7486C118.747 99.902 118.961 100.134 119.132 100.443C119.302 100.753 119.388 101.168 119.388 101.688V106H118.382V105.114H118.331C118.263 105.256 118.149 105.408 117.99 105.57C117.831 105.732 117.619 105.869 117.355 105.983C117.091 106.097 116.768 106.153 116.388 106.153ZM116.541 105.25C116.939 105.25 117.274 105.172 117.547 105.016C117.822 104.859 118.03 104.658 118.169 104.411C118.311 104.163 118.382 103.903 118.382 103.631V102.71C118.339 102.761 118.246 102.808 118.101 102.851C117.959 102.891 117.794 102.926 117.606 102.957C117.422 102.986 117.241 103.011 117.065 103.034C116.892 103.054 116.751 103.071 116.643 103.085C116.382 103.119 116.138 103.175 115.91 103.251C115.686 103.325 115.504 103.437 115.365 103.588C115.229 103.736 115.16 103.937 115.16 104.193C115.16 104.543 115.29 104.807 115.548 104.986C115.809 105.162 116.14 105.25 116.541 105.25ZM59.1607 114.455L60.7289 117.131L62.2971 114.455H63.4561L61.3425 117.727L63.4561 121H62.2971L60.7289 118.46L59.1607 121H58.0016L60.0811 117.727L58.0016 114.455H59.1607ZM64.8912 121V114.455H65.8968V121H64.8912ZM64.9423 113.568L65.9821 111.591H67.1582L65.8287 113.568H64.9423ZM70.3979 121.136C69.7843 121.136 69.2559 120.991 68.8127 120.702C68.3695 120.412 68.0286 120.013 67.79 119.504C67.5513 118.996 67.432 118.415 67.432 117.761C67.432 117.097 67.5542 116.51 67.7985 116.001C68.0456 115.49 68.3894 115.091 68.8297 114.804C69.2729 114.514 69.79 114.369 70.3809 114.369C70.8411 114.369 71.2559 114.455 71.6252 114.625C71.9945 114.795 72.2971 115.034 72.5328 115.341C72.7686 115.648 72.915 116.006 72.9718 116.415H71.9661C71.8894 116.116 71.7189 115.852 71.4547 115.622C71.1934 115.389 70.8411 115.273 70.3979 115.273C70.0059 115.273 69.6621 115.375 69.3667 115.58C69.074 115.781 68.8453 116.067 68.6806 116.436C68.5186 116.803 68.4377 117.233 68.4377 117.727C68.4377 118.233 68.5172 118.673 68.6763 119.048C68.8382 119.423 69.0655 119.714 69.3581 119.922C69.6536 120.129 70.0002 120.233 70.3979 120.233C70.6593 120.233 70.8965 120.188 71.1096 120.097C71.3226 120.006 71.503 119.875 71.6507 119.705C71.7985 119.534 71.9036 119.33 71.9661 119.091H72.9718C72.915 119.477 72.7743 119.825 72.5499 120.135C72.3283 120.442 72.0343 120.686 71.6678 120.868C71.3042 121.047 70.8809 121.136 70.3979 121.136ZM76.3681 121.153C75.9533 121.153 75.5769 121.075 75.2388 120.919C74.9007 120.76 74.6323 120.531 74.4334 120.233C74.2346 119.932 74.1351 119.568 74.1351 119.142C74.1351 118.767 74.209 118.463 74.3567 118.23C74.5044 117.994 74.7019 117.81 74.949 117.676C75.1962 117.543 75.4689 117.443 75.7672 117.378C76.0684 117.31 76.3709 117.256 76.6749 117.216C77.0726 117.165 77.3951 117.126 77.6422 117.101C77.8922 117.072 78.074 117.026 78.1877 116.96C78.3042 116.895 78.3624 116.781 78.3624 116.619V116.585C78.3624 116.165 78.2473 115.838 78.0172 115.605C77.79 115.372 77.4448 115.256 76.9817 115.256C76.5016 115.256 76.1252 115.361 75.8525 115.571C75.5797 115.781 75.388 116.006 75.2772 116.244L74.3226 115.903C74.4931 115.506 74.7203 115.196 75.0044 114.974C75.2914 114.75 75.6039 114.594 75.9419 114.506C76.2828 114.415 76.6181 114.369 76.9476 114.369C77.1578 114.369 77.3993 114.395 77.6721 114.446C77.9476 114.494 78.2132 114.595 78.4689 114.749C78.7275 114.902 78.9419 115.134 79.1124 115.443C79.2828 115.753 79.3681 116.168 79.3681 116.688V121H78.3624V120.114H78.3113C78.2431 120.256 78.1294 120.408 77.9703 120.57C77.8113 120.732 77.5996 120.869 77.3354 120.983C77.0712 121.097 76.7488 121.153 76.3681 121.153ZM76.5215 120.25C76.9192 120.25 77.2544 120.172 77.5272 120.016C77.8027 119.859 78.0101 119.658 78.1493 119.411C78.2914 119.163 78.3624 118.903 78.3624 118.631V117.71C78.3198 117.761 78.226 117.808 78.0811 117.851C77.9391 117.891 77.7743 117.926 77.5868 117.957C77.4022 117.986 77.2218 118.011 77.0456 118.034C76.8723 118.054 76.7317 118.071 76.6238 118.085C76.3624 118.119 76.1181 118.175 75.8908 118.251C75.6664 118.325 75.4846 118.437 75.3453 118.588C75.209 118.736 75.1408 118.937 75.1408 119.193C75.1408 119.543 75.2701 119.807 75.5286 119.986C75.79 120.162 76.1209 120.25 76.5215 120.25ZM81.2037 121V114.455H82.1752V115.443H82.2434C82.3627 115.119 82.5787 114.857 82.8912 114.655C83.2037 114.453 83.5559 114.352 83.948 114.352C84.0218 114.352 84.1142 114.354 84.225 114.357C84.3358 114.359 84.4196 114.364 84.4764 114.369V115.392C84.4423 115.384 84.3642 115.371 84.242 115.354C84.1227 115.334 83.9963 115.324 83.8627 115.324C83.5446 115.324 83.2605 115.391 83.0105 115.524C82.7633 115.655 82.5673 115.837 82.4224 116.07C82.2804 116.3 82.2093 116.562 82.2093 116.858V121H81.2037ZM87.5946 121.153C87.1799 121.153 86.8034 121.075 86.4654 120.919C86.1273 120.76 85.8588 120.531 85.66 120.233C85.4611 119.932 85.3617 119.568 85.3617 119.142C85.3617 118.767 85.4355 118.463 85.5833 118.23C85.731 117.994 85.9284 117.81 86.1756 117.676C86.4228 117.543 86.6955 117.443 86.9938 117.378C87.2949 117.31 87.5975 117.256 87.9015 117.216C88.2992 117.165 88.6216 117.126 88.8688 117.101C89.1188 117.072 89.3006 117.026 89.4142 116.96C89.5307 116.895 89.589 116.781 89.589 116.619V116.585C89.589 116.165 89.4739 115.838 89.2438 115.605C89.0165 115.372 88.6713 115.256 88.2083 115.256C87.7282 115.256 87.3517 115.361 87.079 115.571C86.8063 115.781 86.6145 116.006 86.5037 116.244L85.5492 115.903C85.7196 115.506 85.9469 115.196 86.231 114.974C86.5179 114.75 86.8304 114.594 87.1685 114.506C87.5094 114.415 87.8446 114.369 88.1742 114.369C88.3844 114.369 88.6259 114.395 88.8986 114.446C89.1742 114.494 89.4398 114.595 89.6955 114.749C89.954 114.902 90.1685 115.134 90.339 115.443C90.5094 115.753 90.5946 116.168 90.5946 116.688V121H89.589V120.114H89.5378C89.4696 120.256 89.356 120.408 89.1969 120.57C89.0378 120.732 88.8262 120.869 88.562 120.983C88.2978 121.097 87.9753 121.153 87.5946 121.153ZM87.748 120.25C88.1458 120.25 88.481 120.172 88.7537 120.016C89.0293 119.859 89.2367 119.658 89.3759 119.411C89.5179 119.163 89.589 118.903 89.589 118.631V117.71C89.5463 117.761 89.4526 117.808 89.3077 117.851C89.1657 117.891 89.0009 117.926 88.8134 117.957C88.6287 117.986 88.4483 118.011 88.2722 118.034C88.0989 118.054 87.9583 118.071 87.8503 118.085C87.589 118.119 87.3446 118.175 87.1174 118.251C86.8929 118.325 86.7111 118.437 86.5719 118.588C86.4355 118.736 86.3674 118.937 86.3674 119.193C86.3674 119.543 86.4966 119.807 86.7551 119.986C87.0165 120.162 87.3475 120.25 87.748 120.25Z" fill="white" fill-opacity="0.7"/>
</g>
</g>
<defs>
<filter id="filter0_d_502_14" x="0" y="0" width="149" height="150" filterUnits="userSpaceOnUse" color-interpolation-filters="sRGB">
<feFlood flood-opacity="0" result="BackgroundImageFix"/>
<feColorMatrix in="SourceAlpha" type="matrix" values="0 0 0 0 0 0 0 0 0 0 0 0 0 0 0 0 0 0 127 0" result="hardAlpha"/>
<feOffset dy="4"/>
<feGaussianBlur stdDeviation="2"/>
<feComposite in2="hardAlpha" operator="out"/>
<feColorMatrix type="matrix" values="0 0 0 0 0 0 0 0 0 0 0 0 0 0 0 0 0 0 0.25 0"/>
<feBlend mode="normal" in2="BackgroundImageFix" result="effect1_dropShadow_502_14"/>
<feBlend mode="normal" in="SourceGraphic" in2="effect1_dropShadow_502_14" result="shape"/>
</filter>
</defs>
</svg>
