<svg width="136" height="140" viewBox="0 0 136 140" fill="none" xmlns="http://www.w3.org/2000/svg">
<g clip-path="url(#clip0_501_2)">
<path d="M2.90223 69.1621C2.89904 80.9248 5.90804 92.4103 11.6296 102.534L2.35504 137.122L37.0095 127.841C46.5945 133.171 57.3338 135.964 68.247 135.964H68.2757C104.302 135.964 133.629 106.02 133.644 69.2148C133.651 51.38 126.858 34.6093 114.515 21.9919C102.174 9.37562 85.7608 2.42391 68.2731 2.41577C32.2421 2.41577 2.91764 32.3584 2.90276 69.1621" fill="url(#paint0_linear_501_2)"/>
<path d="M0.568438 69.1405C0.564719 81.3264 3.68156 93.2226 9.60712 103.709L0 139.537L35.8971 129.923C45.7879 135.432 56.924 138.336 68.2555 138.34H68.2847C105.604 138.34 135.984 107.319 136 69.1958C136.006 50.7202 128.968 33.3466 116.184 20.2772C103.399 7.20946 86.3988 0.0075969 68.2847 0C30.9591 0 0.583313 31.0171 0.568438 69.1405ZM21.9459 101.903L20.6056 99.7294C14.9712 90.5784 11.9972 80.0035 12.0015 69.1448C12.0137 37.4576 37.2608 11.6775 68.306 11.6775C83.3404 11.684 97.4695 17.6704 108.097 28.5318C118.723 39.3943 124.571 53.8338 124.567 69.1915C124.553 100.879 99.3055 126.662 68.2847 126.662H68.2624C58.1618 126.657 48.2556 123.886 39.6164 118.65L37.5604 117.405L16.2584 123.109L21.9459 101.902V101.903Z" fill="url(#paint1_linear_501_2)"/>
<path d="M51.3602 40.2353C50.0926 37.3577 48.7587 37.2997 47.5533 37.2492C46.5662 37.2058 45.4378 37.209 44.3105 37.209C43.1821 37.209 41.3488 37.6426 39.7991 39.3709C38.2479 41.1008 33.8768 45.2813 33.8768 53.7838C33.8768 62.2869 39.9399 70.5041 40.7851 71.6583C41.6314 72.8103 52.4902 90.8171 69.6878 97.7444C83.9805 103.501 86.8891 102.356 89.9911 102.068C93.0936 101.78 100.002 97.8882 101.411 93.8526C102.822 89.8176 102.822 86.3588 102.399 85.636C101.976 84.9159 100.848 84.4835 99.1557 83.6196C97.4631 82.7552 89.1448 78.5742 87.5941 77.9973C86.0429 77.4211 84.915 77.1335 83.7866 78.8639C82.6583 80.5917 79.4182 84.4835 78.4306 85.636C77.444 86.7913 76.4565 86.9351 74.765 86.0707C73.0719 85.2035 67.6228 83.3808 61.1581 77.4938C56.1282 72.9128 52.7324 67.2559 51.7454 65.5254C50.7583 63.7976 51.6396 62.8611 52.4881 61.9999C53.2483 61.2256 54.1806 59.9818 55.0274 58.9731C55.8711 57.9638 56.1526 57.2437 56.7168 56.0911C57.2815 54.9375 56.9989 53.9282 56.5766 53.0638C56.1526 52.1994 52.8647 43.6523 51.3602 40.2353Z" fill="white"/>
</g>
<defs>
<linearGradient id="paint0_linear_501_2" x1="6566.83" y1="13473.1" x2="6566.83" y2="2.41577" gradientUnits="userSpaceOnUse">
<stop stop-color="#1FAF38"/>
<stop offset="1" stop-color="#60D669"/>
</linearGradient>
<linearGradient id="paint1_linear_501_2" x1="6800" y1="13953.7" x2="6800" y2="0" gradientUnits="userSpaceOnUse">
<stop stop-color="#F9F9F9"/>
<stop offset="1" stop-color="white"/>
</linearGradient>
<clipPath id="clip0_501_2">
<rect width="136" height="140" fill="white"/>
</clipPath>
</defs>
</svg>
