<svg width="251" height="80" viewBox="0 0 251 80" fill="none" xmlns="http://www.w3.org/2000/svg">
<rect width="251" height="80" rx="15" fill="#92692D"/>
<path fill-rule="evenodd" clip-rule="evenodd" d="M12.4058 34.749C12.1953 34.7491 11.9876 34.7933 11.7979 34.8782C11.6082 34.9632 11.4413 35.0868 11.3096 35.24C11.1779 35.3931 11.0847 35.5719 11.0369 35.7632C10.989 35.9544 10.9878 36.1533 11.0333 36.345L15.6795 55.8593C16.0263 57.3168 16.8953 58.6204 18.1429 59.5548C19.3906 60.4893 20.9423 60.9987 22.542 60.999H38.832C40.4317 60.9987 41.9834 60.4893 43.2311 59.5548C44.4787 58.6204 45.3477 57.3168 45.6945 55.8593L46.0629 54.3105C48.2143 54.6861 50.4378 54.2667 52.2641 53.1409C54.0904 52.0152 55.3765 50.2711 55.851 48.277C56.3255 46.2828 55.9512 44.1946 54.8071 42.4532C53.663 40.7118 51.8386 39.4534 49.7192 38.9438L50.3408 36.345C50.3862 36.1533 50.385 35.9544 50.3371 35.7632C50.2893 35.5719 50.1961 35.3931 50.0644 35.24C49.9327 35.0868 49.7658 34.9632 49.5761 34.8782C49.3864 34.7933 49.1787 34.7491 48.9683 34.749H12.4058ZM47.562 51.8115C47.2644 51.8115 46.9672 51.7896 46.6733 51.7459L49.1117 41.5136C50.4125 41.8653 51.5338 42.6429 52.2699 43.7038C53.006 44.7647 53.3075 46.0378 53.1192 47.2895C52.9308 48.5412 52.2652 49.6875 51.2444 50.5181C50.2237 51.3487 48.9162 51.8079 47.562 51.8115Z" fill="black"/>
<path d="M23.3745 21.0992L23.3661 21.1097L23.3267 21.1596C23.1226 21.4227 22.9312 21.6943 22.7529 21.9733C22.6046 22.1987 22.4722 22.4328 22.3564 22.6742C22.2833 22.8317 22.2608 22.9157 22.2523 22.9446V22.9551C22.2841 23.1873 22.3716 23.4098 22.5083 23.6061C22.7192 23.9552 23.0089 24.3201 23.3745 24.7742L23.4026 24.8057C23.7345 25.2205 24.1339 25.7166 24.4433 26.2311C24.7583 26.7561 25.062 27.4255 25.062 28.1867C25.062 28.6802 24.8792 29.1527 24.7273 29.4835C24.5622 29.8343 24.3724 30.1745 24.1592 30.502C23.9372 30.8454 23.6998 31.1799 23.4476 31.5047L23.397 31.5703L23.3829 31.5913L23.3773 31.5966C23.1539 31.8754 22.821 32.06 22.4518 32.1097C22.0826 32.1594 21.7073 32.0702 21.4086 31.8617C21.1098 31.6532 20.9121 31.3425 20.8588 30.9979C20.8055 30.6533 20.9011 30.303 21.1245 30.0242L21.1329 30.0137L21.1723 29.9638C21.3765 29.7007 21.5679 29.4292 21.7461 29.1501C21.8965 28.9258 22.029 28.6916 22.1426 28.4492C22.2158 28.2917 22.2383 28.2077 22.2467 28.1788C22.2174 27.9432 22.1308 27.7169 21.9936 27.5173C21.7303 27.1114 21.44 26.7213 21.1245 26.3492L21.0964 26.3177C20.717 25.864 20.3694 25.3878 20.0558 24.8923C19.6727 24.301 19.4596 23.6274 19.437 22.9367C19.437 22.4432 19.6198 21.9707 19.7717 21.64C19.9376 21.2777 20.1486 20.9207 20.3398 20.6215C20.5618 20.278 20.7992 19.9435 21.0514 19.6187L21.1217 19.5268C21.3451 19.248 21.678 19.0634 22.0472 19.0137C22.4165 18.964 22.7917 19.0532 23.0904 19.2617C23.3892 19.4702 23.587 19.7809 23.6402 20.1255C23.6935 20.4701 23.5979 20.8204 23.3745 21.0992ZM31.812 21.0992L31.8036 21.1097L31.7642 21.1596C31.5601 21.4227 31.3687 21.6943 31.1904 21.9733C31.0421 22.1987 30.9097 22.4328 30.7939 22.6742C30.7208 22.8317 30.6983 22.9157 30.6898 22.9446V22.9551C30.7216 23.1873 30.8091 23.4098 30.9458 23.6061C31.1567 23.9552 31.4464 24.3201 31.812 24.7742L31.8401 24.8057C32.172 25.2205 32.5714 25.7166 32.8808 26.2311C33.1958 26.7561 33.4995 27.4255 33.4995 28.1867C33.4995 28.6802 33.3167 29.1527 33.1648 29.4835C32.9997 29.8343 32.8099 30.1745 32.5967 30.502C32.3747 30.8454 32.1373 31.1799 31.8851 31.5047L31.8345 31.5703L31.8204 31.5913L31.8148 31.5966C31.5914 31.8754 31.2585 32.06 30.8893 32.1097C30.5201 32.1594 30.1448 32.0702 29.8461 31.8617C29.5473 31.6532 29.3496 31.3425 29.2963 30.9979C29.243 30.6533 29.3386 30.303 29.562 30.0242L29.5704 30.0137L29.6098 29.9638C29.814 29.7007 30.0054 29.4292 30.1836 29.1501C30.334 28.9258 30.4665 28.6916 30.5801 28.4492C30.6533 28.2917 30.6758 28.2077 30.6842 28.1788C30.6549 27.9432 30.5683 27.7169 30.4311 27.5173C30.1678 27.1114 29.8775 26.7213 29.562 26.3492L29.5339 26.3177C29.1545 25.864 28.8069 25.3878 28.4933 24.8923C28.1102 24.301 27.8971 23.6274 27.8745 22.9367C27.8745 22.4432 28.0573 21.9707 28.2092 21.64C28.3751 21.2777 28.5861 20.9207 28.7773 20.6215C28.9993 20.278 29.2367 19.9435 29.4889 19.6187L29.5592 19.5268C29.7826 19.248 30.1155 19.0634 30.4847 19.0137C30.854 18.964 31.2292 19.0532 31.5279 19.2617C31.8267 19.4702 32.0245 19.7809 32.0777 20.1255C32.131 20.4701 32.0354 20.8204 31.812 21.0992ZM40.2495 21.0992L40.2411 21.1097L40.2017 21.1596C39.9973 21.4226 39.8059 21.6941 39.6279 21.9733C39.4797 22.1987 39.3472 22.4328 39.2314 22.6742C39.1583 22.8317 39.1358 22.9157 39.1273 22.9446V22.9551C39.1591 23.1873 39.2466 23.4098 39.3833 23.6061C39.5942 23.9552 39.8839 24.3201 40.2495 24.7742L40.2776 24.8057C40.6095 25.2205 41.0089 25.7166 41.3183 26.2311C41.6333 26.7561 41.937 27.4255 41.937 28.1867C41.937 28.6802 41.7542 29.1527 41.6023 29.4835C41.4381 29.8347 41.2483 30.175 41.0342 30.502C40.8133 30.8454 40.5768 31.18 40.3254 31.5047L40.272 31.5703L40.2579 31.5913L40.2523 31.5966C40.0289 31.8754 39.696 32.06 39.3268 32.1097C38.9576 32.1594 38.5823 32.0702 38.2836 31.8617C37.9848 31.6532 37.7871 31.3425 37.7338 30.9979C37.6805 30.6533 37.7761 30.303 37.9995 30.0242L38.0079 30.0137L38.0473 29.9638C38.2515 29.7007 38.4429 29.4292 38.6211 29.1501C38.7715 28.9258 38.904 28.6916 39.0176 28.4492C39.0908 28.2917 39.1133 28.2077 39.1217 28.1788C39.0924 27.9432 39.0058 27.7169 38.8686 27.5173C38.6053 27.1114 38.315 26.7213 37.9995 26.3492L37.9714 26.3177C37.592 25.864 37.2444 25.3878 36.9308 24.8923C36.5477 24.301 36.3346 23.6274 36.312 22.9367C36.312 22.4432 36.4948 21.9707 36.6467 21.64C36.8126 21.2777 37.0236 20.9207 37.2148 20.6215C37.4368 20.278 37.6742 19.9435 37.9264 19.6187L37.9967 19.5268C38.2201 19.248 38.553 19.0634 38.9222 19.0137C39.2915 18.964 39.6667 19.0532 39.9654 19.2617C40.2642 19.4702 40.4619 19.7809 40.5152 20.1255C40.5685 20.4701 40.4729 20.8204 40.2495 21.0992Z" fill="black"/>
<path d="M73.5515 22.2216H70.8924C70.7901 21.6534 70.5998 21.1534 70.3214 20.7216C70.043 20.2898 69.7021 19.9233 69.2987 19.6222C68.8952 19.321 68.4435 19.0937 67.9435 18.9403C67.4492 18.7869 66.9237 18.7102 66.3668 18.7102C65.3612 18.7102 64.4606 18.9631 63.6651 19.4688C62.8754 19.9744 62.2504 20.7159 61.7901 21.6932C61.3356 22.6705 61.1083 23.8636 61.1083 25.2727C61.1083 26.6932 61.3356 27.892 61.7901 28.8693C62.2504 29.8466 62.8782 30.5852 63.6737 31.0852C64.4691 31.5852 65.364 31.8352 66.3583 31.8352C66.9094 31.8352 67.4322 31.7614 67.9265 31.6136C68.4265 31.4602 68.8782 31.2358 69.2816 30.9403C69.685 30.6449 70.0259 30.2841 70.3043 29.858C70.5884 29.4261 70.7844 28.9318 70.8924 28.375L73.5515 28.3835C73.4094 29.2415 73.1339 30.0312 72.7248 30.7528C72.3214 31.4688 71.8015 32.0881 71.1651 32.6108C70.5344 33.1278 69.8129 33.5284 69.0004 33.8125C68.1879 34.0966 67.3015 34.2386 66.3413 34.2386C64.8299 34.2386 63.4833 33.8807 62.3015 33.1648C61.1197 32.4432 60.1879 31.4119 59.506 30.071C58.8299 28.7301 58.4918 27.1307 58.4918 25.2727C58.4918 23.4091 58.8327 21.8097 59.5146 20.4744C60.1964 19.1335 61.1282 18.1051 62.31 17.3892C63.4918 16.6676 64.8356 16.3068 66.3413 16.3068C67.2674 16.3068 68.131 16.4403 68.9322 16.7074C69.739 16.9687 70.4634 17.3551 71.1055 17.8665C71.7475 18.3722 72.2788 18.9915 72.6992 19.7244C73.1197 20.4517 73.4038 21.2841 73.5515 22.2216ZM82.0124 34.2642C80.7852 34.2642 79.7141 33.983 78.7994 33.4205C77.8846 32.858 77.1744 32.071 76.6687 31.0597C76.163 30.0483 75.9102 28.8665 75.9102 27.5142C75.9102 26.1562 76.163 24.9687 76.6687 23.9517C77.1744 22.9347 77.8846 22.1449 78.7994 21.5824C79.7141 21.0199 80.7852 20.7386 82.0124 20.7386C83.2397 20.7386 84.3107 21.0199 85.2255 21.5824C86.1403 22.1449 86.8505 22.9347 87.3562 23.9517C87.8619 24.9687 88.1147 26.1562 88.1147 27.5142C88.1147 28.8665 87.8619 30.0483 87.3562 31.0597C86.8505 32.071 86.1403 32.858 85.2255 33.4205C84.3107 33.983 83.2397 34.2642 82.0124 34.2642ZM82.021 32.125C82.8164 32.125 83.4755 31.9148 83.9982 31.4943C84.521 31.0739 84.9073 30.5142 85.1573 29.8153C85.413 29.1165 85.5408 28.3466 85.5408 27.5057C85.5408 26.6705 85.413 25.9034 85.1573 25.2045C84.9073 24.5 84.521 23.9347 83.9982 23.5085C83.4755 23.0824 82.8164 22.8693 82.021 22.8693C81.2198 22.8693 80.555 23.0824 80.0266 23.5085C79.5039 23.9347 79.1147 24.5 78.859 25.2045C78.609 25.9034 78.484 26.6705 78.484 27.5057C78.484 28.3466 78.609 29.1165 78.859 29.8153C79.1147 30.5142 79.5039 31.0739 80.0266 31.4943C80.555 31.9148 81.2198 32.125 82.021 32.125ZM97.1893 20.9091V22.9545H89.7915V20.9091H97.1893ZM91.82 34V19.392C91.82 18.5739 91.9989 17.8949 92.3569 17.3551C92.7148 16.8097 93.1893 16.4034 93.7802 16.1364C94.3711 15.8636 95.0131 15.7273 95.7063 15.7273C96.2177 15.7273 96.6552 15.7699 97.0188 15.8551C97.3825 15.9347 97.6523 16.0085 97.8285 16.0767L97.2319 18.1392C97.1126 18.1051 96.9592 18.0653 96.7717 18.0199C96.5842 17.9687 96.3569 17.9432 96.0898 17.9432C95.4705 17.9432 95.0273 18.0966 94.7603 18.4034C94.4989 18.7102 94.3683 19.1534 94.3683 19.733V34H91.82ZM106.049 20.9091V22.9545H98.6509V20.9091H106.049ZM100.679 34V19.392C100.679 18.5739 100.858 17.8949 101.216 17.3551C101.574 16.8097 102.049 16.4034 102.64 16.1364C103.23 15.8636 103.873 15.7273 104.566 15.7273C105.077 15.7273 105.515 15.7699 105.878 15.8551C106.242 15.9347 106.512 16.0085 106.688 16.0767L106.091 18.1392C105.972 18.1051 105.819 18.0653 105.631 18.0199C105.444 17.9687 105.216 17.9432 104.949 17.9432C104.33 17.9432 103.887 18.0966 103.62 18.4034C103.358 18.7102 103.228 19.1534 103.228 19.733V34H100.679ZM113.804 34.2642C112.515 34.2642 111.404 33.9886 110.472 33.4375C109.546 32.8807 108.83 32.0994 108.324 31.0938C107.824 30.0824 107.574 28.8977 107.574 27.5398C107.574 26.1989 107.824 25.017 108.324 23.9943C108.83 22.9716 109.534 22.1733 110.438 21.5994C111.347 21.0256 112.409 20.7386 113.625 20.7386C114.364 20.7386 115.08 20.8608 115.773 21.1051C116.466 21.3494 117.088 21.733 117.64 22.2557C118.191 22.7784 118.625 23.4574 118.944 24.2926C119.262 25.1222 119.421 26.1307 119.421 27.3182V28.2216H109.015V26.3125H116.924C116.924 25.642 116.787 25.0483 116.515 24.5312C116.242 24.0085 115.858 23.5966 115.364 23.2955C114.875 22.9943 114.301 22.8438 113.642 22.8438C112.926 22.8438 112.301 23.0199 111.767 23.3722C111.239 23.7187 110.83 24.1733 110.54 24.7358C110.256 25.2926 110.114 25.8977 110.114 26.5511V28.0426C110.114 28.9176 110.267 29.6619 110.574 30.2756C110.887 30.8892 111.321 31.358 111.878 31.6818C112.435 32 113.086 32.1591 113.83 32.1591C114.313 32.1591 114.753 32.0909 115.151 31.9545C115.549 31.8125 115.892 31.6023 116.182 31.3239C116.472 31.0455 116.694 30.7017 116.847 30.2926L119.259 30.7273C119.066 31.4375 118.719 32.0597 118.219 32.5938C117.725 33.1222 117.103 33.5341 116.353 33.8295C115.608 34.1193 114.759 34.2642 113.804 34.2642ZM143.301 22.2216H140.642C140.54 21.6534 140.35 21.1534 140.071 20.7216C139.793 20.2898 139.452 19.9233 139.049 19.6222C138.645 19.321 138.194 19.0937 137.694 18.9403C137.199 18.7869 136.674 18.7102 136.117 18.7102C135.111 18.7102 134.211 18.9631 133.415 19.4688C132.625 19.9744 132 20.7159 131.54 21.6932C131.086 22.6705 130.858 23.8636 130.858 25.2727C130.858 26.6932 131.086 27.892 131.54 28.8693C132 29.8466 132.628 30.5852 133.424 31.0852C134.219 31.5852 135.114 31.8352 136.108 31.8352C136.659 31.8352 137.182 31.7614 137.676 31.6136C138.176 31.4602 138.628 31.2358 139.032 30.9403C139.435 30.6449 139.776 30.2841 140.054 29.858C140.338 29.4261 140.534 28.9318 140.642 28.375L143.301 28.3835C143.159 29.2415 142.884 30.0312 142.475 30.7528C142.071 31.4688 141.551 32.0881 140.915 32.6108C140.284 33.1278 139.563 33.5284 138.75 33.8125C137.938 34.0966 137.051 34.2386 136.091 34.2386C134.58 34.2386 133.233 33.8807 132.051 33.1648C130.87 32.4432 129.938 31.4119 129.256 30.071C128.58 28.7301 128.242 27.1307 128.242 25.2727C128.242 23.4091 128.583 21.8097 129.265 20.4744C129.946 19.1335 130.878 18.1051 132.06 17.3892C133.242 16.6676 134.586 16.3068 136.091 16.3068C137.017 16.3068 137.881 16.4403 138.682 16.7074C139.489 16.9687 140.213 17.3551 140.855 17.8665C141.498 18.3722 142.029 18.9915 142.449 19.7244C142.87 20.4517 143.154 21.2841 143.301 22.2216ZM151.762 34.2642C150.535 34.2642 149.464 33.983 148.549 33.4205C147.635 32.858 146.924 32.071 146.419 31.0597C145.913 30.0483 145.66 28.8665 145.66 27.5142C145.66 26.1562 145.913 24.9687 146.419 23.9517C146.924 22.9347 147.635 22.1449 148.549 21.5824C149.464 21.0199 150.535 20.7386 151.762 20.7386C152.99 20.7386 154.061 21.0199 154.975 21.5824C155.89 22.1449 156.6 22.9347 157.106 23.9517C157.612 24.9687 157.865 26.1562 157.865 27.5142C157.865 28.8665 157.612 30.0483 157.106 31.0597C156.6 32.071 155.89 32.858 154.975 33.4205C154.061 33.983 152.99 34.2642 151.762 34.2642ZM151.771 32.125C152.566 32.125 153.225 31.9148 153.748 31.4943C154.271 31.0739 154.657 30.5142 154.907 29.8153C155.163 29.1165 155.291 28.3466 155.291 27.5057C155.291 26.6705 155.163 25.9034 154.907 25.2045C154.657 24.5 154.271 23.9347 153.748 23.5085C153.225 23.0824 152.566 22.8693 151.771 22.8693C150.97 22.8693 150.305 23.0824 149.777 23.5085C149.254 23.9347 148.865 24.5 148.609 25.2045C148.359 25.9034 148.234 26.6705 148.234 27.5057C148.234 28.3466 148.359 29.1165 148.609 29.8153C148.865 30.5142 149.254 31.0739 149.777 31.4943C150.305 31.9148 150.97 32.125 151.771 32.125ZM160.709 34V20.9091H163.155V23.0398H163.317C163.59 22.3182 164.036 21.7557 164.655 21.3523C165.275 20.9432 166.016 20.7386 166.88 20.7386C167.755 20.7386 168.488 20.9432 169.078 21.3523C169.675 21.7614 170.115 22.3239 170.4 23.0398H170.536C170.848 22.3409 171.346 21.7841 172.027 21.3693C172.709 20.9489 173.522 20.7386 174.465 20.7386C175.652 20.7386 176.621 21.1108 177.371 21.8551C178.127 22.5994 178.505 23.7216 178.505 25.2216V34H175.956V25.4602C175.956 24.5739 175.715 23.9318 175.232 23.5341C174.749 23.1364 174.172 22.9375 173.502 22.9375C172.672 22.9375 172.027 23.1932 171.567 23.7045C171.107 24.2102 170.877 24.8608 170.877 25.6562V34H168.337V25.2983C168.337 24.5881 168.115 24.017 167.672 23.5852C167.229 23.1534 166.652 22.9375 165.942 22.9375C165.459 22.9375 165.013 23.0653 164.604 23.321C164.201 23.571 163.874 23.9205 163.624 24.3693C163.38 24.8182 163.257 25.3381 163.257 25.929V34H160.709ZM181.92 34V20.9091H184.366V23.0398H184.528C184.801 22.3182 185.247 21.7557 185.866 21.3523C186.485 20.9432 187.227 20.7386 188.091 20.7386C188.966 20.7386 189.699 20.9432 190.289 21.3523C190.886 21.7614 191.326 22.3239 191.61 23.0398H191.747C192.059 22.3409 192.556 21.7841 193.238 21.3693C193.92 20.9489 194.733 20.7386 195.676 20.7386C196.863 20.7386 197.832 21.1108 198.582 21.8551C199.338 22.5994 199.716 23.7216 199.716 25.2216V34H197.167V25.4602C197.167 24.5739 196.926 23.9318 196.443 23.5341C195.96 23.1364 195.383 22.9375 194.713 22.9375C193.883 22.9375 193.238 23.1932 192.778 23.7045C192.318 24.2102 192.088 24.8608 192.088 25.6562V34H189.548V25.2983C189.548 24.5881 189.326 24.017 188.883 23.5852C188.44 23.1534 187.863 22.9375 187.153 22.9375C186.67 22.9375 186.224 23.0653 185.815 23.321C185.412 23.571 185.085 23.9205 184.835 24.3693C184.591 24.8182 184.468 25.3381 184.468 25.929V34H181.92ZM208.773 34.2642C207.483 34.2642 206.373 33.9886 205.441 33.4375C204.515 32.8807 203.799 32.0994 203.293 31.0938C202.793 30.0824 202.543 28.8977 202.543 27.5398C202.543 26.1989 202.793 25.017 203.293 23.9943C203.799 22.9716 204.503 22.1733 205.407 21.5994C206.316 21.0256 207.378 20.7386 208.594 20.7386C209.333 20.7386 210.049 20.8608 210.742 21.1051C211.435 21.3494 212.057 21.733 212.608 22.2557C213.159 22.7784 213.594 23.4574 213.912 24.2926C214.23 25.1222 214.39 26.1307 214.39 27.3182V28.2216H203.983V26.3125H211.892C211.892 25.642 211.756 25.0483 211.483 24.5312C211.211 24.0085 210.827 23.5966 210.333 23.2955C209.844 22.9943 209.27 22.8438 208.611 22.8438C207.895 22.8438 207.27 23.0199 206.736 23.3722C206.208 23.7187 205.799 24.1733 205.509 24.7358C205.225 25.2926 205.083 25.8977 205.083 26.5511V28.0426C205.083 28.9176 205.236 29.6619 205.543 30.2756C205.855 30.8892 206.29 31.358 206.847 31.6818C207.404 32 208.054 32.1591 208.799 32.1591C209.282 32.1591 209.722 32.0909 210.12 31.9545C210.517 31.8125 210.861 31.6023 211.151 31.3239C211.441 31.0455 211.662 30.7017 211.816 30.2926L214.228 30.7273C214.034 31.4375 213.688 32.0597 213.188 32.5938C212.694 33.1222 212.071 33.5341 211.321 33.8295C210.577 34.1193 209.728 34.2642 208.773 34.2642ZM217.217 34V20.9091H219.68V22.9886H219.816C220.055 22.2841 220.475 21.7301 221.078 21.3267C221.686 20.9176 222.373 20.7131 223.14 20.7131C223.299 20.7131 223.487 20.7187 223.703 20.7301C223.924 20.7415 224.098 20.7557 224.223 20.7727V23.2102C224.12 23.1818 223.939 23.1506 223.677 23.1165C223.416 23.0767 223.154 23.0568 222.893 23.0568C222.291 23.0568 221.754 23.1847 221.282 23.4403C220.816 23.6903 220.447 24.0398 220.174 24.4886C219.902 24.9318 219.765 25.4375 219.765 26.0057V34H217.217ZM231.473 34.2642C230.206 34.2642 229.115 33.9773 228.201 33.4034C227.292 32.8239 226.593 32.0256 226.104 31.0085C225.615 29.9915 225.371 28.8267 225.371 27.5142C225.371 26.1847 225.621 25.0114 226.121 23.9943C226.621 22.9716 227.326 22.1733 228.235 21.5994C229.144 21.0256 230.215 20.7386 231.448 20.7386C232.442 20.7386 233.328 20.9233 234.107 21.2926C234.885 21.6562 235.513 22.1676 235.99 22.8267C236.473 23.4858 236.76 24.2557 236.851 25.1364H234.371C234.235 24.5227 233.922 23.9943 233.434 23.5511C232.951 23.108 232.303 22.8864 231.49 22.8864C230.78 22.8864 230.158 23.0739 229.624 23.4489C229.096 23.8182 228.684 24.3466 228.388 25.0341C228.093 25.7159 227.945 26.5227 227.945 27.4545C227.945 28.4091 228.09 29.233 228.38 29.9261C228.669 30.6193 229.078 31.1562 229.607 31.5369C230.141 31.9176 230.769 32.108 231.49 32.108C231.973 32.108 232.411 32.0199 232.803 31.8438C233.201 31.6619 233.533 31.4034 233.8 31.0682C234.073 30.733 234.263 30.3295 234.371 29.858H236.851C236.76 30.7045 236.485 31.4602 236.025 32.125C235.564 32.7898 234.948 33.3125 234.175 33.6932C233.408 34.0739 232.507 34.2642 231.473 34.2642Z" fill="black"/>
<path d="M70.3189 57H66.5518V45.3636H70.4382C71.5784 45.3636 72.5575 45.5966 73.3757 46.0625C74.1939 46.5246 74.8208 47.1894 75.2564 48.0568C75.6958 48.9205 75.9155 49.9564 75.9155 51.1648C75.9155 52.3769 75.6939 53.4186 75.2507 54.2898C74.8113 55.161 74.175 55.8314 73.3416 56.3011C72.5083 56.767 71.5007 57 70.3189 57ZM68.3075 55.4659H70.2223C71.1087 55.4659 71.8454 55.2992 72.4325 54.9659C73.0196 54.6288 73.459 54.142 73.7507 53.5057C74.0424 52.8655 74.1882 52.0852 74.1882 51.1648C74.1882 50.2519 74.0424 49.4773 73.7507 48.8409C73.4628 48.2045 73.0329 47.7216 72.4609 47.392C71.889 47.0625 71.1787 46.8977 70.3303 46.8977H68.3075V55.4659ZM81.6385 57.1761C80.8203 57.1761 80.1063 56.9886 79.4964 56.6136C78.8866 56.2386 78.4131 55.714 78.076 55.0398C77.7389 54.3655 77.5703 53.5777 77.5703 52.6761C77.5703 51.7708 77.7389 50.9792 78.076 50.3011C78.4131 49.6231 78.8866 49.0966 79.4964 48.7216C80.1063 48.3466 80.8203 48.1591 81.6385 48.1591C82.4567 48.1591 83.1707 48.3466 83.7805 48.7216C84.3904 49.0966 84.8639 49.6231 85.201 50.3011C85.5381 50.9792 85.7067 51.7708 85.7067 52.6761C85.7067 53.5777 85.5381 54.3655 85.201 55.0398C84.8639 55.714 84.3904 56.2386 83.7805 56.6136C83.1707 56.9886 82.4567 57.1761 81.6385 57.1761ZM81.6442 55.75C82.1745 55.75 82.6139 55.6098 82.9624 55.3295C83.3108 55.0492 83.5684 54.6761 83.7351 54.2102C83.9055 53.7443 83.9908 53.2311 83.9908 52.6705C83.9908 52.1136 83.9055 51.6023 83.7351 51.1364C83.5684 50.6667 83.3108 50.2898 82.9624 50.0057C82.6139 49.7216 82.1745 49.5795 81.6442 49.5795C81.1101 49.5795 80.6669 49.7216 80.3146 50.0057C79.9661 50.2898 79.7067 50.6667 79.5362 51.1364C79.3696 51.6023 79.2862 52.1136 79.2862 52.6705C79.2862 53.2311 79.3696 53.7443 79.5362 54.2102C79.7067 54.6761 79.9661 55.0492 80.3146 55.3295C80.6669 55.6098 81.1101 55.75 81.6442 55.75ZM98.3771 50.4034L96.8374 50.6761C96.773 50.4792 96.6707 50.2917 96.5305 50.1136C96.3942 49.9356 96.2086 49.7898 95.9737 49.6761C95.7389 49.5625 95.4453 49.5057 95.093 49.5057C94.612 49.5057 94.2105 49.6136 93.8885 49.8295C93.5665 50.0417 93.4055 50.3163 93.4055 50.6534C93.4055 50.9451 93.5135 51.1799 93.7294 51.358C93.9453 51.536 94.2938 51.6818 94.7749 51.7955L96.1612 52.1136C96.9643 52.2992 97.5627 52.5852 97.9567 52.9716C98.3506 53.358 98.5476 53.8598 98.5476 54.4773C98.5476 55 98.3961 55.4659 98.093 55.875C97.7938 56.2803 97.3752 56.5985 96.8374 56.8295C96.3033 57.0606 95.6839 57.1761 94.9794 57.1761C94.0021 57.1761 93.2048 56.9678 92.5874 56.5511C91.9699 56.1307 91.5911 55.5341 91.451 54.7614L93.093 54.5114C93.1953 54.9394 93.4055 55.2633 93.7237 55.483C94.0419 55.6989 94.4567 55.8068 94.968 55.8068C95.5249 55.8068 95.9699 55.6913 96.3033 55.4602C96.6366 55.2254 96.8033 54.9394 96.8033 54.6023C96.8033 54.3295 96.701 54.1004 96.4964 53.9148C96.2957 53.7292 95.987 53.589 95.5703 53.4943L94.093 53.1705C93.2786 52.9848 92.6764 52.6894 92.2862 52.2841C91.8999 51.8788 91.7067 51.3655 91.7067 50.7443C91.7067 50.2292 91.8506 49.7784 92.1385 49.392C92.4264 49.0057 92.8241 48.7045 93.3317 48.4886C93.8393 48.2689 94.4207 48.1591 95.076 48.1591C96.0192 48.1591 96.7616 48.3636 97.3033 48.7727C97.8449 49.178 98.2029 49.7216 98.3771 50.4034ZM100.415 57V48.2727H102.114V57H100.415ZM101.273 46.9261C100.978 46.9261 100.724 46.8277 100.512 46.6307C100.304 46.4299 100.2 46.1913 100.2 45.9148C100.2 45.6345 100.304 45.3958 100.512 45.1989C100.724 44.9981 100.978 44.8977 101.273 44.8977C101.569 44.8977 101.821 44.9981 102.029 45.1989C102.241 45.3958 102.347 45.6345 102.347 45.9148C102.347 46.1913 102.241 46.4299 102.029 46.6307C101.821 46.8277 101.569 46.9261 101.273 46.9261ZM108.474 48.2727V49.6364H103.707V48.2727H108.474ZM104.985 46.1818H106.684V54.4375C106.684 54.767 106.733 55.0152 106.832 55.1818C106.93 55.3447 107.057 55.4564 107.212 55.517C107.371 55.5739 107.544 55.6023 107.729 55.6023C107.866 55.6023 107.985 55.5928 108.087 55.5739C108.19 55.5549 108.269 55.5398 108.326 55.5284L108.633 56.9318C108.534 56.9697 108.394 57.0076 108.212 57.0455C108.031 57.0871 107.803 57.1098 107.531 57.1136C107.084 57.1212 106.667 57.0417 106.281 56.875C105.894 56.7083 105.582 56.4508 105.343 56.1023C105.104 55.7538 104.985 55.3163 104.985 54.7898V46.1818ZM114.021 57.1761C113.161 57.1761 112.42 56.9924 111.799 56.625C111.182 56.2538 110.704 55.733 110.367 55.0625C110.034 54.3883 109.867 53.5985 109.867 52.6932C109.867 51.7992 110.034 51.0114 110.367 50.3295C110.704 49.6477 111.174 49.1155 111.776 48.733C112.382 48.3504 113.091 48.1591 113.901 48.1591C114.394 48.1591 114.871 48.2405 115.333 48.4034C115.795 48.5663 116.21 48.822 116.577 49.1705C116.945 49.5189 117.235 49.9716 117.447 50.5284C117.659 51.0814 117.765 51.7538 117.765 52.5455V53.1477H110.827V51.875H116.1C116.1 51.428 116.009 51.0322 115.827 50.6875C115.646 50.339 115.39 50.0644 115.06 49.8636C114.735 49.6629 114.352 49.5625 113.913 49.5625C113.435 49.5625 113.019 49.6799 112.663 49.9148C112.31 50.1458 112.038 50.4489 111.844 50.8239C111.655 51.1951 111.56 51.5985 111.56 52.0341V53.0284C111.56 53.6117 111.663 54.108 111.867 54.517C112.076 54.9261 112.365 55.2386 112.737 55.4545C113.108 55.6667 113.541 55.7727 114.038 55.7727C114.36 55.7727 114.653 55.7273 114.918 55.6364C115.183 55.5417 115.413 55.4015 115.606 55.2159C115.799 55.0303 115.947 54.8011 116.049 54.5284L117.657 54.8182C117.528 55.2917 117.297 55.7064 116.964 56.0625C116.634 56.4148 116.219 56.6894 115.719 56.8864C115.223 57.0795 114.657 57.1761 114.021 57.1761ZM123.884 60.2727V48.2727H125.543V49.6875H125.685C125.784 49.5057 125.926 49.2955 126.112 49.0568C126.297 48.8182 126.555 48.6098 126.884 48.4318C127.214 48.25 127.649 48.1591 128.191 48.1591C128.896 48.1591 129.524 48.3371 130.077 48.6932C130.63 49.0492 131.064 49.5625 131.379 50.233C131.697 50.9034 131.856 51.7102 131.856 52.6534C131.856 53.5966 131.699 54.4053 131.384 55.0795C131.07 55.75 130.638 56.267 130.089 56.6307C129.54 56.9905 128.913 57.1705 128.208 57.1705C127.678 57.1705 127.244 57.0814 126.907 56.9034C126.574 56.7254 126.312 56.517 126.123 56.2784C125.933 56.0398 125.788 55.8277 125.685 55.642H125.583V60.2727H123.884ZM125.549 52.6364C125.549 53.25 125.638 53.7879 125.816 54.25C125.994 54.7121 126.252 55.0739 126.589 55.3352C126.926 55.5928 127.339 55.7216 127.827 55.7216C128.335 55.7216 128.759 55.5871 129.1 55.3182C129.441 55.0455 129.699 54.6761 129.873 54.2102C130.051 53.7443 130.14 53.2197 130.14 52.6364C130.14 52.0606 130.053 51.5436 129.879 51.0852C129.708 50.6269 129.451 50.2652 129.106 50C128.765 49.7348 128.339 49.6023 127.827 49.6023C127.335 49.6023 126.918 49.7292 126.577 49.983C126.24 50.2367 125.985 50.5909 125.81 51.0455C125.636 51.5 125.549 52.0303 125.549 52.6364ZM136.299 57.1932C135.746 57.1932 135.246 57.0909 134.799 56.8864C134.352 56.678 133.998 56.3769 133.737 55.983C133.479 55.589 133.35 55.1061 133.35 54.5341C133.35 54.0417 133.445 53.6364 133.634 53.3182C133.824 53 134.079 52.7481 134.401 52.5625C134.723 52.3769 135.083 52.2367 135.481 52.142C135.879 52.0473 136.284 51.9754 136.697 51.9261C137.219 51.8655 137.644 51.8163 137.969 51.7784C138.295 51.7367 138.532 51.6705 138.68 51.5795C138.827 51.4886 138.901 51.3409 138.901 51.1364V51.0966C138.901 50.6004 138.761 50.2159 138.481 49.9432C138.204 49.6705 137.791 49.5341 137.242 49.5341C136.67 49.5341 136.219 49.661 135.89 49.9148C135.564 50.1648 135.339 50.4432 135.214 50.75L133.617 50.3864C133.807 49.8561 134.083 49.428 134.447 49.1023C134.814 48.7727 135.237 48.5341 135.714 48.3864C136.191 48.2348 136.693 48.1591 137.219 48.1591C137.568 48.1591 137.937 48.2008 138.327 48.2841C138.721 48.3636 139.089 48.5114 139.43 48.7273C139.774 48.9432 140.057 49.2519 140.276 49.6534C140.496 50.0511 140.606 50.5682 140.606 51.2045V57H138.947V55.8068H138.879C138.769 56.0265 138.604 56.2424 138.384 56.4545C138.165 56.6667 137.882 56.8428 137.538 56.983C137.193 57.1231 136.78 57.1932 136.299 57.1932ZM136.668 55.8295C137.138 55.8295 137.54 55.7367 137.873 55.5511C138.21 55.3655 138.466 55.1231 138.64 54.8239C138.818 54.5208 138.907 54.197 138.907 53.8523V52.7273C138.846 52.7879 138.729 52.8447 138.555 52.8977C138.384 52.947 138.189 52.9905 137.969 53.0284C137.75 53.0625 137.536 53.0947 137.327 53.125C137.119 53.1515 136.945 53.1742 136.805 53.1932C136.475 53.2348 136.174 53.3049 135.901 53.4034C135.632 53.5019 135.416 53.6439 135.254 53.8295C135.094 54.0114 135.015 54.2538 135.015 54.5568C135.015 54.9773 135.17 55.2955 135.481 55.5114C135.791 55.7235 136.187 55.8295 136.668 55.8295ZM142.869 57V48.2727H144.511V49.6591H144.602C144.761 49.1894 145.041 48.8201 145.442 48.5511C145.848 48.2784 146.306 48.142 146.817 48.142C146.924 48.142 147.049 48.1458 147.192 48.1534C147.34 48.161 147.456 48.1705 147.539 48.1818V49.8068C147.471 49.7879 147.35 49.767 147.175 49.7443C147.001 49.7178 146.827 49.7045 146.653 49.7045C146.251 49.7045 145.893 49.7898 145.579 49.9602C145.268 50.1269 145.022 50.3598 144.84 50.6591C144.658 50.9545 144.567 51.2917 144.567 51.6705V57H142.869ZM151.471 57.1932C150.918 57.1932 150.418 57.0909 149.971 56.8864C149.524 56.678 149.17 56.3769 148.908 55.983C148.651 55.589 148.522 55.1061 148.522 54.5341C148.522 54.0417 148.617 53.6364 148.806 53.3182C148.996 53 149.251 52.7481 149.573 52.5625C149.895 52.3769 150.255 52.2367 150.653 52.142C151.05 52.0473 151.456 51.9754 151.869 51.9261C152.391 51.8655 152.816 51.8163 153.141 51.7784C153.467 51.7367 153.704 51.6705 153.852 51.5795C153.999 51.4886 154.073 51.3409 154.073 51.1364V51.0966C154.073 50.6004 153.933 50.2159 153.653 49.9432C153.376 49.6705 152.963 49.5341 152.414 49.5341C151.842 49.5341 151.391 49.661 151.062 49.9148C150.736 50.1648 150.511 50.4432 150.386 50.75L148.789 50.3864C148.978 49.8561 149.255 49.428 149.619 49.1023C149.986 48.7727 150.408 48.5341 150.886 48.3864C151.363 48.2348 151.865 48.1591 152.391 48.1591C152.74 48.1591 153.109 48.2008 153.499 48.2841C153.893 48.3636 154.261 48.5114 154.602 48.7273C154.946 48.9432 155.228 49.2519 155.448 49.6534C155.668 50.0511 155.778 50.5682 155.778 51.2045V57H154.119V55.8068H154.05C153.941 56.0265 153.776 56.2424 153.556 56.4545C153.336 56.6667 153.054 56.8428 152.71 56.983C152.365 57.1231 151.952 57.1932 151.471 57.1932ZM151.84 55.8295C152.31 55.8295 152.711 55.7367 153.045 55.5511C153.382 55.3655 153.638 55.1231 153.812 54.8239C153.99 54.5208 154.079 54.197 154.079 53.8523V52.7273C154.018 52.7879 153.901 52.8447 153.727 52.8977C153.556 52.947 153.361 52.9905 153.141 53.0284C152.922 53.0625 152.708 53.0947 152.499 53.125C152.291 53.1515 152.117 53.1742 151.977 53.1932C151.647 53.2348 151.346 53.3049 151.073 53.4034C150.804 53.5019 150.588 53.6439 150.425 53.8295C150.266 54.0114 150.187 54.2538 150.187 54.5568C150.187 54.9773 150.342 55.2955 150.653 55.5114C150.963 55.7235 151.359 55.8295 151.84 55.8295ZM168.815 50.4034L167.275 50.6761C167.21 50.4792 167.108 50.2917 166.968 50.1136C166.832 49.9356 166.646 49.7898 166.411 49.6761C166.176 49.5625 165.883 49.5057 165.531 49.5057C165.049 49.5057 164.648 49.6136 164.326 49.8295C164.004 50.0417 163.843 50.3163 163.843 50.6534C163.843 50.9451 163.951 51.1799 164.167 51.358C164.383 51.536 164.731 51.6818 165.212 51.7955L166.599 52.1136C167.402 52.2992 168 52.5852 168.394 52.9716C168.788 53.358 168.985 53.8598 168.985 54.4773C168.985 55 168.834 55.4659 168.531 55.875C168.231 56.2803 167.813 56.5985 167.275 56.8295C166.741 57.0606 166.121 57.1761 165.417 57.1761C164.44 57.1761 163.642 56.9678 163.025 56.5511C162.407 56.1307 162.029 55.5341 161.888 54.7614L163.531 54.5114C163.633 54.9394 163.843 55.2633 164.161 55.483C164.479 55.6989 164.894 55.8068 165.406 55.8068C165.962 55.8068 166.407 55.6913 166.741 55.4602C167.074 55.2254 167.241 54.9394 167.241 54.6023C167.241 54.3295 167.138 54.1004 166.934 53.9148C166.733 53.7292 166.424 53.589 166.008 53.4943L164.531 53.1705C163.716 52.9848 163.114 52.6894 162.724 52.2841C162.337 51.8788 162.144 51.3655 162.144 50.7443C162.144 50.2292 162.288 49.7784 162.576 49.392C162.864 49.0057 163.262 48.7045 163.769 48.4886C164.277 48.2689 164.858 48.1591 165.513 48.1591C166.457 48.1591 167.199 48.3636 167.741 48.7727C168.282 49.178 168.64 49.7216 168.815 50.4034ZM176.381 53.3807V48.2727H178.086V57H176.415V55.4886H176.325C176.124 55.9545 175.802 56.3428 175.359 56.6534C174.919 56.9602 174.372 57.1136 173.717 57.1136C173.156 57.1136 172.66 56.9905 172.228 56.7443C171.8 56.4943 171.463 56.125 171.217 55.6364C170.974 55.1477 170.853 54.5436 170.853 53.8239V48.2727H172.552V53.6193C172.552 54.214 172.717 54.6875 173.046 55.0398C173.376 55.392 173.804 55.5682 174.33 55.5682C174.648 55.5682 174.965 55.4886 175.279 55.3295C175.597 55.1705 175.861 54.9299 176.069 54.608C176.281 54.286 176.385 53.8769 176.381 53.3807ZM182.908 57.1932C182.355 57.1932 181.855 57.0909 181.408 56.8864C180.961 56.678 180.607 56.3769 180.346 55.983C180.088 55.589 179.96 55.1061 179.96 54.5341C179.96 54.0417 180.054 53.6364 180.244 53.3182C180.433 53 180.689 52.7481 181.011 52.5625C181.333 52.3769 181.692 52.2367 182.09 52.142C182.488 52.0473 182.893 51.9754 183.306 51.9261C183.829 51.8655 184.253 51.8163 184.579 51.7784C184.905 51.7367 185.141 51.6705 185.289 51.5795C185.437 51.4886 185.511 51.3409 185.511 51.1364V51.0966C185.511 50.6004 185.371 50.2159 185.09 49.9432C184.814 49.6705 184.401 49.5341 183.852 49.5341C183.28 49.5341 182.829 49.661 182.499 49.9148C182.174 50.1648 181.948 50.4432 181.823 50.75L180.227 50.3864C180.416 49.8561 180.692 49.428 181.056 49.1023C181.424 48.7727 181.846 48.5341 182.323 48.3864C182.8 48.2348 183.302 48.1591 183.829 48.1591C184.177 48.1591 184.547 48.2008 184.937 48.2841C185.331 48.3636 185.698 48.5114 186.039 48.7273C186.384 48.9432 186.666 49.2519 186.886 49.6534C187.105 50.0511 187.215 50.5682 187.215 51.2045V57H185.556V55.8068H185.488C185.378 56.0265 185.213 56.2424 184.994 56.4545C184.774 56.6667 184.492 56.8428 184.147 56.983C183.802 57.1231 183.389 57.1932 182.908 57.1932ZM183.278 55.8295C183.747 55.8295 184.149 55.7367 184.482 55.5511C184.819 55.3655 185.075 55.1231 185.249 54.8239C185.427 54.5208 185.516 54.197 185.516 53.8523V52.7273C185.456 52.7879 185.338 52.8447 185.164 52.8977C184.994 52.947 184.799 52.9905 184.579 53.0284C184.359 53.0625 184.145 53.0947 183.937 53.125C183.728 53.1515 183.554 53.1742 183.414 53.1932C183.085 53.2348 182.783 53.3049 182.511 53.4034C182.242 53.5019 182.026 53.6439 181.863 53.8295C181.704 54.0114 181.624 54.2538 181.624 54.5568C181.624 54.9773 181.78 55.2955 182.09 55.5114C182.401 55.7235 182.797 55.8295 183.278 55.8295ZM195.053 48.2727L196.979 51.6705L198.923 48.2727H200.781L198.059 52.6364L200.803 57H198.945L196.979 53.7386L195.019 57H193.156L195.871 52.6364L193.19 48.2727H195.053ZM202.525 57V48.2727H204.224V57H202.525ZM202.684 47.108L204.013 44.4886H205.803L204.042 47.108H202.684ZM210.185 57.1761C209.341 57.1761 208.613 56.9848 208.004 56.6023C207.397 56.2159 206.932 55.6837 206.606 55.0057C206.28 54.3277 206.117 53.5511 206.117 52.6761C206.117 51.7898 206.284 51.0076 206.617 50.3295C206.951 49.6477 207.42 49.1155 208.026 48.733C208.632 48.3504 209.346 48.1591 210.168 48.1591C210.831 48.1591 211.422 48.2822 211.941 48.5284C212.46 48.7708 212.879 49.1117 213.197 49.5511C213.519 49.9905 213.71 50.5038 213.771 51.0909H212.117C212.026 50.6818 211.818 50.3295 211.492 50.0341C211.17 49.7386 210.738 49.5909 210.197 49.5909C209.723 49.5909 209.308 49.7159 208.952 49.9659C208.6 50.2121 208.326 50.5644 208.129 51.0227C207.932 51.4773 207.833 52.0152 207.833 52.6364C207.833 53.2727 207.93 53.822 208.123 54.2841C208.316 54.7462 208.589 55.1042 208.941 55.358C209.297 55.6117 209.716 55.7386 210.197 55.7386C210.519 55.7386 210.81 55.6799 211.072 55.5625C211.337 55.4413 211.558 55.2689 211.737 55.0455C211.918 54.822 212.045 54.553 212.117 54.2386H213.771C213.71 54.803 213.526 55.3068 213.219 55.75C212.913 56.1932 212.502 56.5417 211.987 56.7955C211.475 57.0492 210.875 57.1761 210.185 57.1761ZM218.127 57.1932C217.574 57.1932 217.074 57.0909 216.627 56.8864C216.18 56.678 215.826 56.3769 215.565 55.983C215.307 55.589 215.178 55.1061 215.178 54.5341C215.178 54.0417 215.273 53.6364 215.462 53.3182C215.652 53 215.907 52.7481 216.229 52.5625C216.551 52.3769 216.911 52.2367 217.309 52.142C217.707 52.0473 218.112 51.9754 218.525 51.9261C219.048 51.8655 219.472 51.8163 219.798 51.7784C220.123 51.7367 220.36 51.6705 220.508 51.5795C220.656 51.4886 220.729 51.3409 220.729 51.1364V51.0966C220.729 50.6004 220.589 50.2159 220.309 49.9432C220.032 49.6705 219.62 49.5341 219.07 49.5341C218.498 49.5341 218.048 49.661 217.718 49.9148C217.392 50.1648 217.167 50.4432 217.042 50.75L215.445 50.3864C215.635 49.8561 215.911 49.428 216.275 49.1023C216.642 48.7727 217.065 48.5341 217.542 48.3864C218.019 48.2348 218.521 48.1591 219.048 48.1591C219.396 48.1591 219.765 48.2008 220.156 48.2841C220.549 48.3636 220.917 48.5114 221.258 48.7273C221.603 48.9432 221.885 49.2519 222.104 49.6534C222.324 50.0511 222.434 50.5682 222.434 51.2045V57H220.775V55.8068H220.707C220.597 56.0265 220.432 56.2424 220.212 56.4545C219.993 56.6667 219.71 56.8428 219.366 56.983C219.021 57.1231 218.608 57.1932 218.127 57.1932ZM218.496 55.8295C218.966 55.8295 219.368 55.7367 219.701 55.5511C220.038 55.3655 220.294 55.1231 220.468 54.8239C220.646 54.5208 220.735 54.197 220.735 53.8523V52.7273C220.674 52.7879 220.557 52.8447 220.383 52.8977C220.212 52.947 220.017 52.9905 219.798 53.0284C219.578 53.0625 219.364 53.0947 219.156 53.125C218.947 53.1515 218.773 53.1742 218.633 53.1932C218.303 53.2348 218.002 53.3049 217.729 53.4034C217.46 53.5019 217.245 53.6439 217.082 53.8295C216.923 54.0114 216.843 54.2538 216.843 54.5568C216.843 54.9773 216.998 55.2955 217.309 55.5114C217.62 55.7235 218.015 55.8295 218.496 55.8295ZM224.697 57V48.2727H226.339V49.6591H226.43C226.589 49.1894 226.869 48.8201 227.271 48.5511C227.676 48.2784 228.134 48.142 228.646 48.142C228.752 48.142 228.877 48.1458 229.021 48.1534C229.168 48.161 229.284 48.1705 229.367 48.1818V49.8068C229.299 49.7879 229.178 49.767 229.004 49.7443C228.829 49.7178 228.655 49.7045 228.481 49.7045C228.079 49.7045 227.721 49.7898 227.407 49.9602C227.096 50.1269 226.85 50.3598 226.668 50.6591C226.487 50.9545 226.396 51.2917 226.396 51.6705V57H224.697ZM233.299 57.1932C232.746 57.1932 232.246 57.0909 231.799 56.8864C231.352 56.678 230.998 56.3769 230.737 55.983C230.479 55.589 230.35 55.1061 230.35 54.5341C230.35 54.0417 230.445 53.6364 230.634 53.3182C230.824 53 231.079 52.7481 231.401 52.5625C231.723 52.3769 232.083 52.2367 232.481 52.142C232.879 52.0473 233.284 51.9754 233.697 51.9261C234.219 51.8655 234.644 51.8163 234.969 51.7784C235.295 51.7367 235.532 51.6705 235.68 51.5795C235.827 51.4886 235.901 51.3409 235.901 51.1364V51.0966C235.901 50.6004 235.761 50.2159 235.481 49.9432C235.204 49.6705 234.791 49.5341 234.242 49.5341C233.67 49.5341 233.219 49.661 232.89 49.9148C232.564 50.1648 232.339 50.4432 232.214 50.75L230.617 50.3864C230.807 49.8561 231.083 49.428 231.447 49.1023C231.814 48.7727 232.237 48.5341 232.714 48.3864C233.191 48.2348 233.693 48.1591 234.219 48.1591C234.568 48.1591 234.937 48.2008 235.327 48.2841C235.721 48.3636 236.089 48.5114 236.43 48.7273C236.774 48.9432 237.057 49.2519 237.276 49.6534C237.496 50.0511 237.606 50.5682 237.606 51.2045V57H235.947V55.8068H235.879C235.769 56.0265 235.604 56.2424 235.384 56.4545C235.165 56.6667 234.882 56.8428 234.538 56.983C234.193 57.1231 233.78 57.1932 233.299 57.1932ZM233.668 55.8295C234.138 55.8295 234.54 55.7367 234.873 55.5511C235.21 55.3655 235.466 55.1231 235.64 54.8239C235.818 54.5208 235.907 54.197 235.907 53.8523V52.7273C235.846 52.7879 235.729 52.8447 235.555 52.8977C235.384 52.947 235.189 52.9905 234.969 53.0284C234.75 53.0625 234.536 53.0947 234.327 53.125C234.119 53.1515 233.945 53.1742 233.805 53.1932C233.475 53.2348 233.174 53.3049 232.901 53.4034C232.632 53.5019 232.416 53.6439 232.254 53.8295C232.094 54.0114 232.015 54.2538 232.015 54.5568C232.015 54.9773 232.17 55.2955 232.481 55.5114C232.791 55.7235 233.187 55.8295 233.668 55.8295Z" fill="white" fill-opacity="0.9"/>
</svg>
