<svg width="25" height="25" viewBox="0 0 25 25" fill="none" xmlns="http://www.w3.org/2000/svg">
<g clip-path="url(#clip0_505_63)">
<path d="M19.1406 0H5.85938C2.62333 0 0 2.62333 0 5.85938V19.1406C0 22.3767 2.62333 25 5.85938 25H19.1406C22.3767 25 25 22.3767 25 19.1406V5.85938C25 2.62333 22.3767 0 19.1406 0Z" fill="#242938"/>
<mask id="mask0_505_63" style="mask-type:luminance" maskUnits="userSpaceOnUse" x="3" y="3" width="19" height="19">
<path d="M3.71094 3.71094H21.2891V21.2891H3.71094V3.71094Z" fill="white"/>
</mask>
<g mask="url(#mask0_505_63)">
<path fill-rule="evenodd" clip-rule="evenodd" d="M19.9024 17.4034C18.9464 17.3769 18.2047 17.4748 17.5831 17.7363C17.4041 17.8082 17.1169 17.8082 17.0933 18.0335C17.189 18.128 17.2005 18.2827 17.2844 18.4138C17.4276 18.6516 17.679 18.9719 17.906 19.1381L18.671 19.6848C19.1372 19.9696 19.6632 20.1361 20.1174 20.4213C20.3805 20.5877 20.6434 20.8016 20.9064 20.98C21.0404 21.075 21.1216 21.2298 21.2891 21.2889V21.2529C21.2055 21.1464 21.1813 20.992 21.098 20.8727L20.739 20.5283C20.3926 20.065 19.9619 19.6607 19.4957 19.3284C19.1131 19.067 18.2766 18.7106 18.1211 18.2713L18.0976 18.2446C18.3602 18.2181 18.671 18.1256 18.9223 18.0543C19.329 17.9478 19.6993 17.9712 20.1174 17.8644L20.6916 17.6979V17.5914C20.4764 17.3776 20.321 17.0924 20.094 16.8906C19.4845 16.3679 18.8146 15.8568 18.1211 15.4292C17.7506 15.1917 17.2723 15.0369 16.8778 14.8354C16.734 14.764 16.4952 14.7283 16.4116 14.6096C16.1959 14.3486 16.0767 14.0037 15.9213 13.6946L14.9411 11.6274C14.726 11.1641 14.5941 10.7007 14.3315 10.273C13.1 8.25322 11.7608 7.02969 9.70459 5.82949C9.2625 5.57998 8.73652 5.47266 8.17725 5.34219L7.28076 5.29434C7.08916 5.21123 6.89805 4.98535 6.73066 4.87832C6.04922 4.45059 4.2918 3.52402 3.78926 4.74521C3.4665 5.51738 4.26768 6.27764 4.53965 6.66992C4.74326 6.94316 5.00586 7.25195 5.14971 7.56094C5.23008 7.76279 5.25693 7.97686 5.34082 8.19072C5.53184 8.71338 5.71133 9.2958 5.9624 9.78311C6.09639 10.0326 6.23711 10.2943 6.40449 10.5199C6.50019 10.653 6.66768 10.7101 6.70332 10.9238C6.53584 11.1616 6.52432 11.5177 6.42861 11.8151C5.99805 13.1577 6.16553 14.821 6.7751 15.8095C6.9667 16.1063 7.41816 16.7601 8.03076 16.5104C8.56875 16.2965 8.44873 15.6193 8.6041 15.0252C8.64023 14.8828 8.61621 14.7877 8.68769 14.6924V14.719L9.17803 15.7051C9.54863 16.2872 10.1944 16.8933 10.7321 17.2975C11.0188 17.5113 11.2461 17.8799 11.6046 18.0104V17.9744H11.5811C11.5092 17.8679 11.4015 17.8199 11.3059 17.7368C11.0907 17.523 10.8517 17.2615 10.6842 17.024C10.1823 16.3588 9.74023 15.622 9.34551 14.8617C9.154 14.4935 8.98652 14.0895 8.83164 13.7212C8.75928 13.5785 8.75928 13.3644 8.64004 13.2936C8.46045 13.5545 8.19795 13.7809 8.06582 14.1015C7.83857 14.6122 7.81504 15.242 7.73144 15.8955C7.6832 15.9074 7.70459 15.8955 7.6832 15.9221C7.30107 15.8273 7.16924 15.4348 7.02598 15.1024C6.66738 14.2589 6.60732 12.9045 6.91816 11.9302C7.00176 11.6807 7.36084 10.8965 7.21748 10.6589C7.14521 10.4331 6.90664 10.3026 6.7748 10.1242C6.61943 9.89844 6.45254 9.61348 6.34482 9.36396C6.0581 8.69824 5.91475 7.96191 5.60361 7.29658C5.45977 6.9876 5.20898 6.6667 5.00557 6.38184C4.77832 6.06094 4.52783 5.83506 4.34834 5.45508C4.28857 5.32197 4.20498 5.11055 4.30059 4.96777C4.32422 4.87275 4.37236 4.83467 4.46758 4.81338C4.62285 4.68018 5.06562 4.84902 5.221 4.91982C5.66309 5.09824 6.03369 5.26445 6.4043 5.51367C6.57178 5.63242 6.75127 5.8583 6.96641 5.91797H7.21777C7.60039 6.00098 8.03047 5.94453 8.38867 6.05107C9.02246 6.25342 9.59609 6.5501 10.1105 6.87119C11.6765 7.85732 12.968 9.25928 13.8403 10.9348C13.9837 11.208 14.0435 11.4575 14.1753 11.7427C14.4267 12.3251 14.7375 12.9189 14.988 13.4896C15.2394 14.0479 15.4783 14.6187 15.8369 15.0819C16.0164 15.3314 16.7334 15.4619 17.0561 15.5927C17.2953 15.6992 17.6656 15.7951 17.8813 15.9256C18.2875 16.1751 18.694 16.4603 19.0764 16.7335C19.2674 16.8757 19.8655 17.1729 19.9011 17.4099L19.9024 17.4034ZM7.71074 7.07891C7.54561 7.07745 7.38099 7.09741 7.221 7.13828V7.16494H7.24453C7.34023 7.35508 7.50771 7.48584 7.62715 7.65225L7.90234 8.22256L7.92598 8.196C8.09336 8.07725 8.17725 7.88711 8.17725 7.60225C8.10547 7.51914 8.09365 7.43574 8.03389 7.35264C7.96211 7.23389 7.80674 7.17422 7.71074 7.07949V7.07891Z" fill="white"/>
</g>
</g>
<defs>
<clipPath id="clip0_505_63">
<rect width="25" height="25" fill="white"/>
</clipPath>
</defs>
</svg>
