<svg width="25" height="25" viewBox="0 0 25 25" fill="none" xmlns="http://www.w3.org/2000/svg">
<g clip-path="url(#clip0_505_59)">
<path d="M19.1406 0H5.85938C2.62333 0 0 2.62333 0 5.85938V19.1406C0 22.3767 2.62333 25 5.85938 25H19.1406C22.3767 25 25 22.3767 25 19.1406V5.85938C25 2.62333 22.3767 0 19.1406 0Z" fill="#007ACC"/>
<path d="M5.52842 12.583L5.52051 13.6068H8.77441V22.8528H11.0762V13.6068H14.3301V12.6028C14.3301 12.0472 14.3183 11.583 14.3023 11.5711C14.2904 11.5552 12.3103 11.5472 9.90947 11.5512L5.54043 11.5631L5.52842 12.583ZM20.1726 11.534C20.8074 11.6928 21.2916 11.9746 21.736 12.4348C21.9662 12.6809 22.3074 13.1294 22.3353 13.2365C22.3432 13.2682 21.2559 13.9984 20.5972 14.4071C20.5733 14.423 20.478 14.3198 20.3709 14.1611C20.0495 13.6928 19.7122 13.4904 19.1963 13.4547C18.4384 13.4031 17.9503 13.8 17.9543 14.4627C17.9543 14.6571 17.982 14.7721 18.0614 14.9309C18.228 15.2761 18.5376 15.4825 19.5099 15.9031C21.2995 16.673 22.0653 17.1809 22.5416 17.9031C23.0733 18.7086 23.1924 19.9944 22.8312 20.9507C22.4345 21.9904 21.4503 22.6967 20.0653 22.9309C19.6368 23.0063 18.6209 22.9944 18.1606 22.9111C17.1566 22.7325 16.2043 22.2365 15.617 21.5857C15.3868 21.3317 14.9384 20.669 14.9662 20.6213C14.978 20.6055 15.0812 20.542 15.1963 20.4746C15.3074 20.4111 15.7281 20.169 16.1249 19.9388L16.8432 19.5221L16.9939 19.7444C17.2043 20.0658 17.6645 20.5063 17.9424 20.6531C18.7399 21.0738 19.8353 21.0142 20.3749 20.5301C20.6051 20.3198 20.7003 20.1015 20.7003 19.7801C20.7003 19.4904 20.6646 19.3634 20.5138 19.1452C20.3193 18.8674 19.9226 18.6333 18.7955 18.1452C17.5059 17.5896 16.9503 17.2444 16.4424 16.6967C16.1487 16.3794 15.8709 15.8713 15.7559 15.4467C15.6606 15.0936 15.6368 14.2087 15.7122 13.8515C15.978 12.6055 16.9186 11.7365 18.2757 11.4785C18.7162 11.3952 19.7399 11.4269 20.1726 11.534Z" fill="white"/>
</g>
<defs>
<clipPath id="clip0_505_59">
<rect width="25" height="25" fill="white"/>
</clipPath>
</defs>
</svg>
