<svg width="25" height="25" viewBox="0 0 25 25" fill="none" xmlns="http://www.w3.org/2000/svg">
<g clip-path="url(#clip0_505_71)">
<path d="M19.1406 0H5.85938C2.62333 0 0 2.62333 0 5.85938V19.1406C0 22.3767 2.62333 25 5.85938 25H19.1406C22.3767 25 25 22.3767 25 19.1406V5.85938C25 2.62333 22.3767 0 19.1406 0Z" fill="#242938"/>
<path d="M17.7734 4.88281H21.2891L12.5 20.0439L3.71094 4.88281H10.4346L12.5 8.39844L14.5215 4.88281H17.7734Z" fill="#41B883"/>
<path d="M3.71094 4.88281L12.5 20.0439L21.2891 4.88281H17.7734L12.5 13.9795L7.18262 4.88281H3.71094Z" fill="#41B883"/>
<path d="M7.18262 4.88281L12.5 14.0234L17.7734 4.88281H14.5215L12.5 8.39844L10.4346 4.88281H7.18262Z" fill="white"/>
</g>
<defs>
<clipPath id="clip0_505_71">
<rect width="25" height="25" fill="white"/>
</clipPath>
</defs>
</svg>
