<svg width="25" height="25" viewBox="0 0 25 25" fill="none" xmlns="http://www.w3.org/2000/svg">
<g clip-path="url(#clip0_505_54)">
<path d="M19.1406 0H5.85938C2.62333 0 0 2.62333 0 5.85938V19.1406C0 22.3767 2.62333 25 5.85938 25H19.1406C22.3767 25 25 22.3767 25 19.1406V5.85938C25 2.62333 22.3767 0 19.1406 0Z" fill="#242938"/>
<path d="M11.7068 3.03868C12.1872 2.76378 12.8128 2.76251 13.2927 3.03868C15.7069 4.40294 18.122 5.76495 20.5358 7.12999C20.9899 7.38576 21.2936 7.89103 21.289 8.41417V16.6217C21.2924 17.1665 20.9587 17.6839 20.4797 17.9338C18.0733 19.2905 15.6682 20.6488 13.2622 22.0056C12.7721 22.2859 12.1339 22.2643 11.6589 21.9609C10.9375 21.5428 10.2148 21.1266 9.49336 20.7088C9.3459 20.6209 9.17969 20.551 9.07559 20.408C9.16768 20.284 9.33223 20.2686 9.46592 20.2144C9.76699 20.1186 10.0437 19.9649 10.3202 19.8157C10.3902 19.7679 10.4756 19.7862 10.5427 19.829C11.1596 20.1827 11.7711 20.5468 12.39 20.8971C12.5221 20.9734 12.6558 20.8721 12.7687 20.8092C15.13 19.4745 17.4942 18.145 19.8553 16.81C19.9428 16.7679 19.9911 16.675 19.984 16.5792C19.9856 13.8717 19.9844 11.1638 19.9849 8.45617C19.9948 8.34757 19.9319 8.24757 19.8336 8.20304C17.4356 6.85255 15.0388 5.50011 12.6412 4.14933C12.5997 4.12075 12.5505 4.10541 12.5001 4.10532C12.4497 4.10523 12.4004 4.12041 12.3588 4.14884C9.96113 5.50011 7.56484 6.85392 5.16719 8.20421C5.06924 8.24884 5.00352 8.34718 5.01514 8.45617C5.01563 11.1638 5.01514 13.8717 5.01514 16.5796C5.01098 16.6264 5.02125 16.6733 5.04458 16.7141C5.06791 16.7548 5.10317 16.7874 5.14561 16.8075C5.78535 17.1703 6.42598 17.5306 7.06621 17.8922C7.42695 18.0862 7.86973 18.2017 8.26709 18.0529C8.61777 17.9272 8.86357 17.5693 8.85693 17.197C8.86025 14.5053 8.85527 11.8132 8.85938 9.12179C8.85059 9.00236 8.96397 8.90363 9.08018 8.91495C9.3876 8.91281 9.69541 8.91075 10.0028 8.91574C10.1312 8.91281 10.2194 9.04152 10.2036 9.16183C10.2023 11.8706 10.2069 14.5794 10.2016 17.2881C10.2023 18.0101 9.90576 18.7956 9.23799 19.1488C8.41543 19.5749 7.39863 19.4846 6.58594 19.076C5.88242 18.7248 5.21094 18.3104 4.51992 17.9342C4.03965 17.6857 3.70762 17.1662 3.71104 16.6218V8.41417C3.70596 7.88019 4.02168 7.36574 4.48984 7.11368C6.8958 5.75597 9.30137 4.39708 11.7068 3.03868Z" fill="#81CD39"/>
<path d="M13.8059 8.72404C14.8552 8.65646 15.9785 8.684 16.9228 9.20099C17.6539 9.59708 18.0592 10.4285 18.0721 11.2407C18.0517 11.3502 17.9371 11.4107 17.8325 11.4031C17.5281 11.4027 17.2235 11.4073 16.9191 11.4011C16.7899 11.4061 16.7149 11.287 16.6987 11.1729C16.6112 10.7842 16.3992 10.3993 16.0335 10.2118C15.472 9.93078 14.821 9.94494 14.2087 9.95079C13.7617 9.97443 13.2811 10.0132 12.9023 10.276C12.6116 10.4751 12.5233 10.8771 12.6271 11.2008C12.7249 11.4332 12.9932 11.5082 13.2128 11.5774C14.4773 11.9081 15.8174 11.8751 17.0578 12.3104C17.5714 12.4878 18.0737 12.8328 18.2495 13.3705C18.4795 14.0912 18.3787 14.9526 17.8659 15.5311C17.4501 16.0071 16.8445 16.2663 16.2405 16.407C15.437 16.5862 14.6031 16.5908 13.7871 16.5112C13.0198 16.4237 12.2213 16.2222 11.629 15.6994C11.1225 15.2596 10.8751 14.5742 10.8996 13.9129C10.9055 13.8012 11.0167 13.7233 11.1237 13.7324C11.4303 13.73 11.7369 13.7291 12.0435 13.7329C12.166 13.7241 12.2567 13.83 12.2631 13.9454C12.3195 14.3156 12.4587 14.7043 12.7816 14.9237C13.4047 15.3258 14.1866 15.2983 14.9001 15.3095C15.4912 15.2833 16.1548 15.2754 16.6371 14.8847C16.8916 14.6618 16.967 14.289 16.8982 13.9683C16.8237 13.6975 16.5404 13.5713 16.2972 13.4888C15.0488 13.094 13.6938 13.2372 12.4575 12.7906C11.9556 12.6133 11.4702 12.2779 11.2774 11.7623C11.0084 11.0325 11.1316 10.1298 11.6981 9.57091C12.2505 9.01476 13.0478 8.8006 13.8059 8.72404Z" fill="#81CD39"/>
</g>
<defs>
<clipPath id="clip0_505_54">
<rect width="25" height="25" fill="white"/>
</clipPath>
</defs>
</svg>
