<svg width="25" height="25" viewBox="0 0 25 25" fill="none" xmlns="http://www.w3.org/2000/svg">
<g clip-path="url(#clip0_505_50)">
<path d="M19.1406 0H5.85938C2.62333 0 0 2.62333 0 5.85938V19.1406C0 22.3767 2.62333 25 5.85938 25H19.1406C22.3767 25 25 22.3767 25 19.1406V5.85938C25 2.62333 22.3767 0 19.1406 0Z" fill="#242938"/>
<path fill-rule="evenodd" clip-rule="evenodd" d="M8.10547 10.7422C8.69141 8.39844 10.1563 7.22656 12.5 7.22656C16.0156 7.22656 16.4551 9.86328 18.2129 10.3027C19.3849 10.5958 20.4102 10.1563 21.2891 8.98438C20.7032 11.328 19.2382 12.5 16.8945 12.5C13.3789 12.5 12.9395 9.86328 11.1816 9.42383C10.0097 9.13086 8.98438 9.57031 8.10547 10.7422ZM3.71094 16.0156C4.29688 13.672 5.76172 12.5 8.10547 12.5C11.6211 12.5 12.0605 15.1367 13.8184 15.5762C14.9903 15.8692 16.0156 15.4298 16.8945 14.2578C16.3087 16.6015 14.8437 17.7734 12.5 17.7734C8.98438 17.7734 8.54492 15.1367 6.78711 14.6973C5.61523 14.4042 4.58984 14.8437 3.71094 16.0156Z" fill="url(#paint0_linear_505_50)"/>
</g>
<defs>
<linearGradient id="paint0_linear_505_50" x1="8.44727" y1="7.22656" x2="15.9668" y2="18.1152" gradientUnits="userSpaceOnUse">
<stop stop-color="#32B1C1"/>
<stop offset="1" stop-color="#14C6B7"/>
</linearGradient>
<clipPath id="clip0_505_50">
<rect width="25" height="25" fill="white"/>
</clipPath>
</defs>
</svg>
